<svg xmlns="http://www.w3.org/2000/svg" width="819.76" height="528.67"><g data-name="Layer 2"><ellipse cx="225.86" cy="456.42" rx="50.87" ry="13.83" fill="#8d8d8d"/><ellipse cx="299.84" cy="484.09" rx="50.87" ry="13.83" fill="#8d8d8d"/><ellipse cx="396.56" cy="511.75" rx="50.87" ry="13.83" fill="#8d8d8d"/><ellipse cx="482.9" cy="485.09" rx="50.87" ry="13.83" fill="#8d8d8d"/><ellipse cx="549.78" cy="454.42" rx="50.87" ry="13.83" fill="#8d8d8d"/><ellipse cx="517.49" cy="392.54" rx="50.87" ry="13.83" fill="#8d8d8d"/><ellipse cx="448.43" cy="354.75" rx="50.87" ry="13.48" fill="#8d8d8d"/><ellipse cx="405.68" cy="315.14" rx="50.3" ry="13.06" fill="#8d8d8d"/><ellipse cx="431.22" cy="275.43" rx="48.15" ry="13.06" fill="#8d8d8d"/><ellipse cx="481.9" cy="240.46" rx="46.44" ry="12.59" fill="#8d8d8d"/><ellipse cx="357.71" cy="220.55" rx="46.44" ry="12.59" fill="#8d8d8d"/><ellipse cx="259.98" cy="203.9" rx="46.44" ry="12.59" fill="#8d8d8d"/><ellipse cx="181.27" cy="179.07" rx="46.44" ry="12.59" fill="#8d8d8d"/><ellipse cx="213.99" cy="145.7" rx="46.44" ry="12.59" fill="#8d8d8d"/><ellipse cx="284.84" cy="121.57" rx="46.44" ry="12.59" fill="#8d8d8d"/><g><path fill="#3a3a3a" d="M201.47 101.41l26.27-.24 26.28-.14 52.55-.12 52.55.11 26.28.14 26.28.25-26.28.24-26.28.14-52.55.12-52.55-.12-26.28-.14-26.27-.24z"/><path fill="#ff9" opacity=".58" d="M305.61 16.83l4.14 24.2 12.17-21.32-4.39 24.16 18.72-15.88-12.38 21.2 23.03-8.52-18.89 15.69 24.55-.13-23.11 8.28 23.11 8.28-24.55-.13 18.89 15.69-23.03-8.52 12.38 16.2-18.72-10.87 4.39 10.15-12.17-7.32-4.14 10.2-4.14-10.2-12.17 7.32 4.39-10.15-18.73 10.87 12.39-16.2-23.03 8.52 18.89-15.69-24.56.13 23.12-8.28-23.12-8.28 24.56.13-18.89-15.69 23.03 8.52-12.39-21.2 18.73 15.88-4.39-24.16 12.17 21.32 4.14-24.2z"/><path fill="#ff9" opacity=".58" d="M305.37 3.85l4.83 28.8 14.18-25.37-5.12 28.74 21.83-18.89-14.44 25.22 26.84-10.13-22.01 18.66 28.61-.15-26.94 9.85 26.94 9.85-28.61-.15 22.01 18.66-26.84-10.13 14.44 20.22-21.83-13.89 5.12 12.09-14.18-8.72-4.83 12.14-4.82-12.14-14.18 8.72 5.11-12.09-21.82 13.89 14.43-20.22-26.84 10.13 22.02-18.66-28.62.15 26.94-9.85-26.94-9.85 28.62.15-22.02-18.66 26.84 10.13-14.43-25.22 21.82 18.89-5.11-28.74 14.18 25.37 4.82-28.8z"/><path d="M327.09 60.53v41h-41v-41h.13a20.35 20.35 0 0 1 40.7 0z" fill="#636363" stroke="#6a6a6a" stroke-miterlimit="10"/></g><g><path d="M586.67 138.73h-61.78s-2.2-36.29-2.2-48.39c0-3.35 2.2-13.39 2.2-13.39s15.69-2.49 20.91-2.49c6.45 0 25.8 2.49 25.8 2.49h15.07zM590.46 138.73h61.77s2.21-36.29 2.21-48.39c0-3.35-2.21-13.39-2.21-13.39s-15.68-2.49-20.91-2.49c-6.44 0-25.79 2.49-25.79 2.49h-15.07z" fill="#aaa" stroke="#7d7d7d" stroke-miterlimit="10"/><path d="M508.18 202.38h99s-3.9-24.92-3.9-33.21 5.55-27.47 5.55-27.47-25.65-3.13-33.46-3.13c-7.34 0-21.58-3-28.79-2.56-29 2-38.42 0-38.42 0zM633.88 62.07l31.72 11.72v67.91h95.68V73.79S768.4 56.51 775 45.61l-11.8 2.29-17.12 25.89h-70.41L641.51 59.7z" fill="#aaa" stroke="#7d7d7d" stroke-miterlimit="10"/><path fill="none" stroke="#7d7d7d" stroke-miterlimit="10" d="M761.28 73.79H665.6"/><path d="M600.45 202.38h99s-3.9-24.92-3.9-33.21 5.55-27.47 5.55-27.47-25.66-3.13-33.46-3.13c-7.35 0-21.58-3-28.79-2.56-29 2-38.42 0-38.42 0z" fill="#aaa" stroke="#7d7d7d" stroke-miterlimit="10"/><path d="M795.41 202.38h-99s3.91-24.92 3.91-33.21-5.56-27.47-5.56-27.47 25.66-3.13 33.47-3.13c7.34 0 21.58-3 28.78-2.56 29 2 38.43 0 38.43 0z" fill="#aaa" stroke="#7d7d7d" stroke-miterlimit="10"/><g><path d="M634.43 2.31l-6.56 28.55v48h-67.61v-48s-.11-17.69-2.61-28.73l10.06.74 3.29 28h49.76L629 .63z" fill="#aaa" stroke="#7d7d7d" stroke-miterlimit="10"/><path fill="none" stroke="#7d7d7d" stroke-miterlimit="10" d="M560.26 30.86h67.61"/></g><g><path d="M715.3 137.59l-31.72 11.72v67.9H587.9v-67.9s-7.12-17.28-13.66-28.18l11.76 2.29 17.12 25.89h70.41l34.16-14.09z" fill="#aaa" stroke="#7d7d7d" stroke-miterlimit="10"/><path fill="none" stroke="#7d7d7d" stroke-miterlimit="10" d="M683.58 149.31H587.9"/></g><g><g data-name="fragile-text-group"><path d="M689.63 100.57h.56l.18-.07c.69 0 1 0 1.05.12h.09a2.27 2.27 0 0 1 .93.26h.05c0-.06 0-.11.16-.14s0-.09.16-.11.09-.29.34-.52v.27l.07.14.09.26.05.26a2.18 2.18 0 0 0-.69 0l.06.11h.65v.19l.16.67v.56l.09.22v.56l.07.1v.2h.08v.07l-.08.09h-.05l-.27.09h-.05l-.18.07h-.33v-.31h-.05v-.05l-.07-.15-.08-.22v-.27a3.2 3.2 0 0 0-.73-.72s-.06-.06-.16 0-.07-.07-.19 0-.11-.13-.3-.1v-.07h-.85l-.18.07c-.46.22-.66.47-.61.76v.36l.06.1v.39l.06.1v.12l.1.33V104l-.06.13h.15v.49l.12.4V105.14l.08-.09.88-.07c.41-.13.61-.25.58-.38s-.22-.38-.56-.51H691a1.25 1.25 0 0 1 .52.1c.2 0 .45.18.78.63l-.09.1.13.16c0 .22-.06.34-.12.37a.83.83 0 0 1 .27.45c0 .33-.25.65-.91 1h-.15v.1c.15 0 .27-.19.34-.48a.74.74 0 0 0-.44-.12l-.17.11h-.05l-.49.17h-.1l-.22.08v.45l.07.14v.39h.09l.22 1.5.12.4v.19l.07.14v.31a.8.8 0 0 0 .65.73H691.93a1.68 1.68 0 0 0 .73-.4c0 .22-.27.54-.95.94H691.48l.07.1-.49.13-.46.08a1.2 1.2 0 0 1-.63-.16 1.34 1.34 0 0 1-.63.42H689a3.15 3.15 0 0 1-1.38-.18l-.49-.34h.05l.58.09c.42-.07.61-.25.56-.52v-.31l-.08-.18-.07-.1v-.12l-.17-.42.06-.21-.24-.84-.06-.56-.06-.11h-.05v-.07l.08-.09-.14-.25v-.3c-.06-.35-.36-.61-.89-.8l.61-.83-.11-.36v-.54l-.07-.14v-.26h-.05l.07-.09-.11-.1a.82.82 0 0 1 0-.42l-.07-.14c.09 0 .13 0 .12-.1s-.18 0-.2-.08l-.08-.18v-.15l-.16-.36v-.12l-.07-.11c-.16 0-.25-.09-.26-.15h-.27a1.28 1.28 0 0 0-.67.5 2 2 0 0 1 1-1.25 3.3 3.3 0 0 1 .8-.25 1 1 0 0 0 1.54-.24c.07-.62.34-.73.91-.87zm-1.16 11h.22v-.11zm-1.4-10.07l.1.06h.24l-.3-.1zm.44 1.68l-.07.17.2-.19zm1 6.16l.16.09h-.11zm-1.07-6.34h.14zm1.36 6.36v.07h.09c0 .07.05.11.11.1zm-1.34-7.86s.07.07.2 0h.19v-.12zm1.73 9.86h.11l.17-.06zm-1.42-8.36h.14v-.12zm.24-.23v.07a1.26 1.26 0 0 0 .57-.45 1.91 1.91 0 0 1-.58.39zm1.21 6.84v.07c.18 0 .28 0 .3.15h.09l-.36-.17zm-.31-3.62h.28l.08-.09H689zm.82 4.15l.24.25v-.18c-.06 0-.1 0-.12-.12zm.18-.31v.08h.13-.24q.42 0 .45.15h.18zm-.75-8l.11.1-.44.15v.08h-.05l-.16.14h.08c.18 0 .27-.11.26-.15l.12-.06h.15s0-.08.12-.09l.24-.2h-.05zm.15 4l.17-.15c-.12.16-.18.21-.17.24zm-.63-4.41s.06.07.15 0zm1.63 9v.11h.09l-.06-.11zm-.71-4.82h.09l.12-.13c-.13.13-.2.2-.21.25zm.89 5v.08h.05l-.07-.1zm-1.49-9.06h.28-.19zm1.89 9.67q.1 0 .42.24h.05c-.21-.2-.35-.29-.43-.28zm-1.24-9.48v.07h.13v-.11zm.55-.29h-.2l-.29.17h.33l.06-.16h.1c.19-.13.29-.21.28-.24zm1.6 9.65l-.06.2h.06l.08-.13h-.12zm-1.19-10l.08-.09zm.37 0s0 .09-.12.1h.27zm.26-.46l-.08.12h.1l.07-.09zm.21.46v.11h.23zm.33 0h1V101c-.51.09-.78.1-.79 0zM697.6 99.86a2.47 2.47 0 0 1 1.6.28 1.89 1.89 0 0 1 .92 1.14v.3l.09.1a1.9 1.9 0 0 1-.34 1.39c-.05 0-.19.18-.4.51v.06c.58.09.93.23 1 .41l.09.1v.09c.08 0 .13.08.16.29v.49l.09.31v.67a5.84 5.84 0 0 1 .36 1.06.67.67 0 0 0 .42.13.51.51 0 0 0 .41-.19c0 .1 0 .17-.07.19h-.36.43c-.09.3-.45.61-1.1 1h-.23a.84.84 0 0 1-.77-.28c-.1 0-.28-.1-.53-.35l-.07-.17h.15s-.07 0-.08-.08l-.12-.06v-.09l-.06-.11v-.39h-.08v-.17l.06-.07-.07-.19v-.1l-.07-.16V105.39l-.08-.22c-.06 0-.11-.11-.18-.35s-.35-.18-1-.09l-.46.08.17 1 .06.55.06.14.06.14v.23l-.06.07.11.18.12.28v.2c.22.26.44.37.64.33a.65.65 0 0 0 .35-.24.67.67 0 0 1-.28.42.8.8 0 0 1-.63.56 1.6 1.6 0 0 1-.93-.22.89.89 0 0 1-.54.42h-.07a2 2 0 0 1-1.39-.52h.54l.2-.06h.11q.08 0 .15-.39s-.08 0-.09-.07v-.42l-.07-.17v-.09l-.06-.17v-.13l-.15-.89v-.1l-.18-.64v-.1l-.6-.37c.31-.41.45-.68.43-.81v-.38l-.1-.16.06-.07-.22-.33v-.15l-.09-.25V102.19l-.07-.19v-.7a.68.68 0 0 0-.49-.12l-.52.33a1.88 1.88 0 0 1 .83-.8c0-.08.19-.15.44-.19a1.08 1.08 0 0 1 .6.21 3.11 3.11 0 0 1 1-.62zm-1.79 4.71c0 .06-.12.13-.4.22h.1a1.56 1.56 0 0 1 .43-.19v-.06zm-.32.06h.17zm-.07-1v.06h.15zm1 .77v.06l.18-.06zm-.48-3.78h.17zm1.1.31c0 .06 0 .09-.06.1l-.17.06h-.1l.05.29v.39l.11.39v.18l.08.22v.2l-.05.1.1.16v.43c0 .18.12.25.26.23l.49-.06c.45-.19.65-.43.6-.7s0-.23.14-.26c-.09 0-.15 0-.16-.07l-.1-.57.06-.07c-.2-.63-.37-.93-.52-.91s-.2-.1-.55-.08h-.14v-.06zm-.44-.42h.21-.22zm.63 3.54h.11l.23-.1h-.11zm.11.46v.05h.11zm-.45-4h.29v-.06h-.14zm.87 3.3l.13-.06v-.05zm.12.1h.18zm-.45-3.41h.15v-.06zm.69 3.13v.06l.17-.09h-.07zm-.22-3.15h.32-.22zm.61 2.91h.11zm.13.5h.25-.24zm-.36-3.42h.14zm.71 3.42h.12zm-.05-.73h.11zm-.43-2.67h.43-.39zm1.39 6.9h.51-.48zm-.46-3.46h.22-.21zm-.43-3.46H699.3h-.22zm.42 2.37h.07l.13-.11zm1.08 4.53h.3zM700 104h.14zm1.09 3.31s0 .06.12 0zM706 98.42h.11c.25 0 .55.1.91.45l.11.2a.61.61 0 0 0-.59-.15.34.34 0 0 0-.26.23l.26.63s-.06 0-.05.1v.15-.13h.07c.46 1.43.79 2.13 1 2.09l.11.17a1 1 0 0 1 .48.19 2.69 2.69 0 0 0-.35.62l1.22 3a.35.35 0 0 0 .37.18h.1a.63.63 0 0 0 .4-.31 1.79 1.79 0 0 1-1.07.93l-.48-.14h-.07a1.61 1.61 0 0 1-.57.34h-.15a1.24 1.24 0 0 1-1-.43 1.88 1.88 0 0 0 .64 0 .22.22 0 0 0 .18-.27l-.19-.46.19-.16-.16.09-.07-.35c-.11 0-.25-.26-.41-.85l-.36.06h-1.04c0 .05-.08.09-.27.14a12.19 12.19 0 0 1-.14 1.53v.45a.28.28 0 0 0 .32.13.71.71 0 0 0 .34-.18v.06a1.57 1.57 0 0 1-.63.66h-.15a1 1 0 0 1-.66-.16 1.13 1.13 0 0 1-.54.35h-.15c-.61 0-.93-.16-1-.42a.92.92 0 0 0 .49 0c.27 0 .43-.26.49-.63v-.08l.19-.81V105.05l.16-1a1.18 1.18 0 0 0 0-.43 1.9 1.9 0 0 0-.54-.47 2 2 0 0 1 .47-.54l.2-.34c0-.18.07-.33.29-.45h-.11c0 .1 0 .16-.09.17v-.06a8.8 8.8 0 0 0 .17-1.84v-.25a.37.37 0 0 0-.47-.35l-.3.18c.22-.45.45-.69.7-.74 0 0 0-.07.16-.09h.08v.06h.07v-.06a1.52 1.52 0 0 1 1 .22 1.29 1.29 0 0 1 .59-.64zm-2.29 7.2h.1zm.21-.07h.18-.1zm.24-.1v.06l.11-.05zm.07-3.7v.08l.13-.11zm-.08-2.35l.13-.15c-.12.08-.16.12-.16.15zm.38 2.14v.06l.56-.41h-.07zm.75-.41c0 .37 0 .56-.16.58v.47l.06.09a6.35 6.35 0 0 0-.22 1.35c.08 0 .12 0 .13.07l.13-.06.74-.07s.07-.07.21-.1l-.45-1.27v-.09a3.33 3.33 0 0 1-.48-1.06zm-.92-2.13h.11zm.87 1.94l-.05.13h.07v-.1zm.08 0c.11-.06.16-.11.17-.16-.11.15-.18.22-.17.22zm.33 0l.13.07.2-.07v.06h.12c0-.06-.08-.07-.2-.05h-.22zm.1-.29l.13-.09zm.22-.25v.05a1.19 1.19 0 0 0 .38-.34.76.76 0 0 0-.29.26zm.21.57l.13.07zm.28.08l.12.07-.08-.05zm.95 4.56v.09h.08v-.09zm-.75-4.48h.14s0-.06-.11 0zm.85 4.43h.07v-.09zm.12.28l.14.08h-.09zm.14.11h.15v-.09zm.06-.5l.25-.11v-.06q-.26.16-.25.23zm.17.58l.14.13h.07v-.09h-.15zm-.1-.81h.1v-.06zm.82 1a.33.33 0 0 0 .32.1zM711.77 97.38H712.06l.06-.08c.3 0 .46 0 .47.09l.17-.05s.18.11.54.23h-.14a.62.62 0 0 1 .36 0 .77.77 0 0 0 .29-.37 1.15 1.15 0 0 0 .3-.28v.43l.05.11.06.13v.26l.06.13v.28h.08v.39l.08.24v.37l.13.53c0 .11 0 .18-.11.19h-.06l-.24.08-.62.1h-.08v-.14a.08.08 0 0 1-.09-.08v-.16l-.06-.13v-.17s0-.07.12-.11l-.09.07-.12-.21.06-.13a1.37 1.37 0 0 0-1.09-1.12l-.13.08H712a.79.79 0 0 0-.66.72l.06.11-.06.07.11.45-.06.24.07.19v.26c.1.6.24.89.39.86l.41.28c-.3.32-.45.55-.44.68v.23l.08.25v.55h.06v.4l.06.16v.12l.08.28c.16.49.27.73.34.72a1 1 0 0 0 .62.07l.16-.09h.11c.15 0 .24-.25.27-.68l.13-.06-.17-.12v-.19a.48.48 0 0 1 .12-.49l.07-.07-.21.2V102.91l-.06-.14-.05-.08.05-.12s-.09-.07-.15-.24h-.09a2 2 0 0 0-.52-.29l-.25-.16h.29v-.07h.11l1.13.19h.22s.16-.12.52-.24a.79.79 0 0 1 .42-.25l.2-.1h.17c.22 0 .44.07.67.35h-.1.12a.18.18 0 0 1-.11.22.34.34 0 0 0-.39-.17h-.23c-.27.12-.36.39-.29.8l.07.37V103.76l.16.44v.2l.08.25v.15h.07v.25h-.07l.09.1c0 .15 0 .23-.07.24H715.38l-.5.15h-.11l-.3.08h-.32l-.21.07h-.45l-.37.12-.27.08a1.68 1.68 0 0 0-.59-.07c-.7-.34-1.08-.62-1.13-.85a2.4 2.4 0 0 1-.59-.71l-.45-.91h.14a.57.57 0 0 1-.25-.42l-.15-.32v-.2l-.14-.18a.23.23 0 0 0-.23-.11c0-.08-.1-.13-.24-.14a.23.23 0 0 1 .18-.15h-.07l-.16.11h-.07l.46-.61c0-.18 0-.27.09-.28v-.44a.27.27 0 0 1 .13-.29v-.08c0-.57.1-.86.2-.88a2.07 2.07 0 0 1 .55-1.14.35.35 0 0 1 .19-.13c.24-.21.36-.34.36-.38zm-2.27 4.47h.1v-.06zm.38-.3l.06-.07zm.63 2.16l.08.05zm-.12-2.46v.06h.11zm.61 2.81q.19.16.27.15zm-.42-2.92h.1zm.23-.13l.11-.11zm.87 4.59h.14l.1-.07h.16v-.06zm-1.16-7.28h.14zm.55 2.53l-.07.15.12-.14zm.72 3.68v.06l.35.2-.37-.25zm-.57-3.82h.1v-.06zm.94 4.78a.7.7 0 0 1 .27-.14h-.07c-.13.06-.2.11-.2.14zM711.3 98h.14zm.27-.14l.24-.07h-.14zm2.31 6.88h.14v-.06zm-1.14-7.09h.31s-.1-.05-.28 0zm1.39 6.92h.11v-.06zm0 .17h.14zm-.1-1.58h.09V103zm.31 1.34l.06-.07zm-.76-4.9h.07v-.09zm0 .22l.06-.07zm.67 3c0 .06 0 .09-.09.1l.15-.16zm-.51-3.35l.07-.07zm.67 3.61h.14zm.2 1.13l.06-.07zm0-1.65s0 .06-.09.07h.07l.06-.1zm-.07 0l.06-.07zm-.54-3.28c0-.07.1-.17.34-.29-.2.13-.34.23-.34.29zm.66 3.76h.14zm-.54-3.51h.14zm-.31-1.94h.14zm.9 4.71l.12.07c.15-.28.24-.42.28-.43h.1-.1l.14-.19c-.25.34-.45.54-.52.55zm.57-.39h.07zm.18-.41l-.05.13a.16.16 0 0 0 .11-.14zm0 .28h.2zM717 96.48a1.08 1.08 0 0 1 .59.18.69.69 0 0 1 .39-.32 1.52 1.52 0 0 1 1.66.48h-.54c-.33.08-.48.19-.46.33l.18.76v.42l.08.23v.22l.1.22.12.68.69.49v.06c-.14.23-.25.35-.35.37a.57.57 0 0 0-.18.45l.13.56.09.5h-.07v.27l.06.17.13.35.09.69v.2q.45.3.57.27a1 1 0 0 0 .45-.23c0 .23-.19.45-.7.68h-.05a1 1 0 0 1-.47.3.84.84 0 0 1-.65-.13c0 .09-.18.17-.59.26a2.36 2.36 0 0 1-1.31-.23l-.22-.15.47.1c.37-.16.53-.35.5-.55v-.18l.07-.1-.12-.23-.1-.36a6.58 6.58 0 0 1-.14-1.27l-.11-.16v-.18l-.09-.29v-.1l-.64-.46c.32-.46.46-.75.44-.88v-.54l-.13-.25v-.94c-.08 0-.16-.16-.25-.53v-.09q0-.27-.6-.27a.57.57 0 0 0-.37.22v-.06a2 2 0 0 1 1.07-.92zm-.14.89h.11zm.68 3.92h.07l.09-.15-.13.15zm.16-.21h.07l.09-.13s-.06 0-.08.13zm.29.19h.15zm0-.6v.09h.01v-.09zm.14-.27l-.05.13v-.16zm-.6-3.21l.25-.07h-.15zm1.3 6.33h.17-.12zm0-.23v.06h.11zm-.51-3.3v.1h.07V100zm-.51-2.91h.08v-.06zm.56 2.78v.09h.07v-.1zm.7 3.49h.18-.18zm-.61-3.66l.06-.07zM718 97l.14-.05zm.65 3.71l.09-.11zm.51 2.91v.06h.15zm-.59-4.21v.1l.06-.14zm0-.2v.07l.1-.05v-.06zm.73 4.2h.18v-.06h-.17zM722.35 95.55a1.54 1.54 0 0 1 1.45.55.82.82 0 0 0-.45-.07h-.07c-.27 0-.41.2-.4.44l.07.22.08.62-.06.07-.06.07.09.08v.15h.08l-.06.07.1.19v.16h.08v.19l.05.11-.06.1.3.46c.08 0 .24.07.48.25a2.33 2.33 0 0 0-.48.84v.18l.11.22v.41l.09.32-.06.07.08.08v.18l.1.37v.06l-.06.1h.16l.05.27c.07.39.32.54.78.46s.71-.45.89-1.15v-.32l-.1-.17h.18v-.06h-.15v-.18l-.13-.52c0-.12 0-.18.08-.19h.62l.56-.15.07.59v.14l-.06.07a2.7 2.7 0 0 1 .24.71 1.67 1.67 0 0 1-.28.93c-.2.41-.39.63-.58.67 0 .09-.16.2-.53.31h-.11c0 .12-.32.24-1 .36a3.16 3.16 0 0 1-1.3-.13l-.06.07h-.05l-.23.11a3.45 3.45 0 0 1-1.66-.22v-.05h.62c.25-.12.36-.27.32-.45s0-.12 0-.13l-.06-.14.06-.1-.09-.08V102.11l-.09-.49v-.08l-.12-.52V101l-.06-.14v-.23c0-.19-.25-.39-.65-.61a2.35 2.35 0 0 0 .47-.87.77.77 0 0 1-.18-.39v-.33l-.13-.34v-.5h-.08l-.06-.35c-.15-.4-.35-.57-.6-.53h-.07a.66.66 0 0 0-.37.25 1.14 1.14 0 0 1 .44-.62h.15-.15a1.33 1.33 0 0 1 .75-.37 1 1 0 0 1 .69.15.92.92 0 0 1 .42-.57zm-1.58.7h.08l-.09-.05zm.31 0v.06h.11v-.06zm.44 2.51l.06-.07zm.12 0l.06-.07zm.09-.32l-.06.11h.07v-.1zm.77 4.63l.06-.07zm-1-6.77h.11v-.05zm1.2 6.65h.1zm.17-.06h.11zm-1.15-6.57h.15zm.36 1.77l.09-.11zm.17.18l.09-.11zm.83 4.52h.17-.07zm-.79-4.79l.06-.07zm1 4.76a1.43 1.43 0 0 0 .47-.26 1.44 1.44 0 0 1-.49.23zm-.64-5.13l.07-.07zm2.62 5.48h.08l-.08-.05zm.26 0h.08-.08zm.45.1h.26v-.06zm-.1-2.51v.06h.1zm.31.31v.06c.22-.12.34-.21.36-.28a.58.58 0 0 1-.38.21zm.37-.4l.06-.07zM731.83 93.81h.12l.17.79a.4.4 0 0 1-.12.4v-.09h.08v.23l.16.7.08.49c0 .15 0 .24-.1.25h-.27l-.14.06h-.28l-.27.07-.08-.25V96.01l.07-.19a.15.15 0 0 1-.13-.15v-.21c0-.17-.33-.31-.9-.39h-.21c-.47.09-.76.21-.85.38a6.12 6.12 0 0 1 .08 1.3c.06 0 .1 0 .14.18v.33h.08v.2c0 .23.14.33.3.31l.26-.14h.39a.4.4 0 0 0 .23-.51c0-.11-.12-.2-.29-.27.48 0 .75.15.79.38l.05.11a.75.75 0 0 1-.11.61.12.12 0 0 0 .16.11l.16.36a.72.72 0 0 1-.61.72l-.17.06q.27-.33.24-.48s-.14-.07-.4 0h-.11l-.23.07c-.29.07-.43.15-.42.25l.09.1.07.6V100.07h.14v.58l.09.31.15.23-.06.07v.08l.09.12-.06.07a.35.35 0 0 1 .18.26h.52a2.44 2.44 0 0 0 1.25-.75V100.19l-.11-.21-.05.02-.09-.08v-.07h.39l.1-.07h.56v.18l.11.22v.32l.1.16v.08a.26.26 0 0 1-.19.16l.16-.11.07.19v.11c0 .21-.3.65-.95 1.31a4.56 4.56 0 0 1-1.05.54l-.16.06h-.14a2.28 2.28 0 0 1-1.5-.18.82.82 0 0 1-.35.27h-.17a2.16 2.16 0 0 1-1.25-.25h-.08l-.13-.1a1.35 1.35 0 0 0 .48.1h.17c.2-.12.28-.26.25-.43l-.06-.1.06-.07-.09-.14v-.2l-.08-.22.06-.07-.12-.07v-.83l-.09-.1V100.03l-.07-.16v-.12s-.07 0-.08-.08v-.37h-.08.07c-.12 0-.26-.07-.39-.26l.06-.07h-.25l.43-.63v-.54l-.05-.08v-.35s-.08 0-.09-.07v-.63l-.09-.11v-.2a3.66 3.66 0 0 0-.2-.76h-.59l-.3.26c0-.24.26-.55.91-.92l.31-.06a.81.81 0 0 1 .6.16 3 3 0 0 1 1-.55l.49-.06.36-.12h.47l1 .16c-.07-.13.1-.31.31-.66zm-4 4.82h.1zm.08.46h.11V99zm-.57-3.85v.08l.06-.07h.13-.17zm1.13 3a.25.25 0 0 1-.22.16v.06l.32-.21zm-.17.47l.13-.07c-.05.02-.09.05-.09.08zm.46-.66v.06l.1-.05V98zm.13-.08H729.1h-.07zm.18-.18h.11v-.06zm-.49-3.17s0 .05.12 0zm.56 3h.08l.06-.06h-.11zm1.31 5.18l.15-.11zm-1.16-8h.08-.08zm1.38 7.84l.06-.07zm.41-.31l.06-.07zM730 94.92h.22-.22zm1.54 7l.2-.1v-.06zm-.64-4.07l.12-.16zm.94 3.93l.06-.07zm-1-6.58l.19.09v-.06h-.15zm1.26 6.4l.09-.1zm-.72-5.79l.06-.07zm1 5.55v-.07zm.24-.25v.06l.1-.05zm.22-.18l-.06.07h.07l.05-.1zm-.94-5.16s.12.07.33.09zm0-.68v.09h.1v-.09z" fill="#fff"/></g><path d="M683.26 99.71c4-.89 8.12-1.67 12.2-2.43s8.16-1.44 12.24-2.16 8.18-1.33 12.28-1.93l6.15-.89c2.06-.26 4.11-.55 6.17-.78-2 .45-4.06.84-6.09 1.27L720.1 94c-4.07.76-8.16 1.44-12.24 2.16s-8.18 1.33-12.28 1.93-8.2 1.14-12.32 1.62zM686.17 114.68c4.06-.88 8.13-1.66 12.2-2.42s8.16-1.44 12.24-2.16 8.18-1.33 12.28-1.93l6.15-.89c2.06-.26 4.11-.55 6.17-.78-2 .45-4.06.84-6.09 1.26l-6.1 1.16c-4.08.77-8.16 1.44-12.24 2.16s-8.18 1.33-12.28 1.94-8.2 1.18-12.33 1.66zM683.34 102.37a35.15 35.15 0 0 1 2 11.74 36 36 0 0 1-2-11.74z" fill="#fff"/></g></g><g><path fill="#bcbcbc" stroke="#999" stroke-miterlimit="10" d="M23.04 284.71h8.89v106.72h-8.89zM34.9 388.47l-2.96 2.96V284.71l3.7.74-.74 103.02zM183.86 391.44h-8.89V284.72h8.89zM172.01 388.47l2.96 2.96V284.71l-3.71.74.75 103.02z"/><path fill="#bcbcbc" stroke="#999" stroke-miterlimit="10" d="M206.47 306.58H1.18l22.23-22.98h160.82l22.24 22.98zM206.47 321.4H1.18l.37-.51v-14.31H206.1v14.31l.37.51zM1.55 321.77h8.89v106.72H1.55z"/><path fill="#bcbcbc" stroke="#999" stroke-miterlimit="10" d="M13.41 425.52l-2.97 2.97V321.77h3.71l-.74 103.75z"/><g><path fill="#bcbcbc" stroke="#999" stroke-miterlimit="10" d="M206.1 428.49h-8.89V321.77h8.89zM194.24 425.52l2.96 2.97V321.77h-3.7l.74 103.75z"/></g><path fill="#828282" d="M21.19 302.13l5.16-15.93h104.42l4.55 15.93H21.19z"/><g><path fill="none" stroke="#4e4e4e" stroke-miterlimit="10" d="M21.49 301.76l4.86-15.56M21.49 203.19l4.86-2.96"/></g><g><path fill="none" stroke="#4e4e4e" stroke-miterlimit="10" d="M131.37 200.6v88.19M132.59 201.34v91.9M133.8 202.08v95.6"/></g><g><path fill="none" stroke="#828282" stroke-miterlimit="10" d="M26.35 200.23h104.42v85.97H26.35zM35.76 200.18v86.39M46.46 200.18v86.39M57.16 200.18v86.39M67.86 200.18v86.39M78.56 199.86v86.38M89.26 200.18v86.39M99.96 200.18v86.39M110.66 200.18v86.39M121.36 200.18v86.39"/></g><g><path d="M66.55 281.86c-11.12 2.13-18-.53-20 4.69s12.41 4.91 15.46 4.19 4.41-3 3.57-2.87a15.36 15.36 0 0 1-5 .93c-3.14 0-11.16.12-10.29-1.73 1.19-2.55 1.49-.12 7.81-1.14s14 .28 16.56-1.4" fill="#ffa5a5" stroke="#ff5d5d" stroke-miterlimit="10" stroke-width=".25"/><circle cx="71.46" cy="227.04" r="7.44" fill="#fdfdfd"/><path d="M78.94 227a8.14 8.14 0 0 1-2 5.43 7.18 7.18 0 0 1-5.43 2.32 7.8 7.8 0 0 1-5.35-2.4 8.09 8.09 0 0 1-2.3-5.35 7.62 7.62 0 0 1 7.65-7.83 7.32 7.32 0 0 1 5.43 2.4 8 8 0 0 1 2 5.43zm-.08 0a7 7 0 0 0-2.31-5 7.68 7.68 0 0 0-5.09-2 7.29 7.29 0 0 0-7.24 7 6.9 6.9 0 0 0 2.07 5.17 7.07 7.07 0 0 0 5.17 2 7.85 7.85 0 0 0 5.09-2 6.88 6.88 0 0 0 2.31-5.17z" fill="#858585"/><path d="M95.6 287.84c2.26.38 3.69 1.55 5.65 1s4.52.76 2.56 1.36a6.62 6.62 0 0 1-4.22.22c-1.28-.68 1.28.68 3.88.42 2.25-.22 3 1.21 1.48 1.77a3.3 3.3 0 0 1-.88.19 8.93 8.93 0 0 1-5.16-1.1c-.64-.34 2.22 2 4 2.53s.11 2.11-1.66 1.58-2.41-.87-4.63-2.87c-.76-.69.91 1.37-.08 3.24-.68 1.28-1.82 1.09-1.77-.53 0-1 .95-2 .23-2.75-5.84-6.1.32-5.28.6-5.06z" fill="#ffa5a5"/><path d="M95.61 287.81c1.28.17 2.51.71 3.76.94a3.87 3.87 0 0 0 1.85-.12 4 4 0 0 1 2-.08 3.26 3.26 0 0 1 1 .36 1.12 1.12 0 0 1 .43.39.55.55 0 0 1-.09.68 2.26 2.26 0 0 1-1 .46 9.61 9.61 0 0 1-1 .23 7.76 7.76 0 0 1-2 .15 3.5 3.5 0 0 1-1-.21l-.23-.12-.11-.06h-.06a.24.24 0 0 1-.13-.22c0-.1 0-.12.12-.17s.2 0 .18 0h.18l.23.07a9.89 9.89 0 0 0 3.77.54 2.91 2.91 0 0 1 1.94.43 1.07 1.07 0 0 1 .33.42.75.75 0 0 1 0 .55 1.43 1.43 0 0 1-.82.6c-.33.06-.65.15-1 .19s-.65 0-1 0a9.06 9.06 0 0 1-1.94-.26 9.32 9.32 0 0 1-1.85-.68l-.22-.11-.11-.05.11-.05c.11-.05 0-.1 0-.1l.08.08.18.15a8.75 8.75 0 0 0 .78.58 17.11 17.11 0 0 0 1.63 1 7.41 7.41 0 0 0 .86.4 6.17 6.17 0 0 1 .94.38.81.81 0 0 1 .38.48.78.78 0 0 1-.13.62 1.86 1.86 0 0 1-.89.62 3.06 3.06 0 0 1-2-.09 8 8 0 0 1-1.83-.79 12.66 12.66 0 0 1-1.59-1.19l-.74-.64-.18-.16-.08-.07a.24.24 0 0 0 .28-.17v-.07.1l.09.23a4.62 4.62 0 0 1 .29 2 2.78 2.78 0 0 1-1 1.86 1.19 1.19 0 0 1-.61.19.87.87 0 0 1-.6-.28 1.71 1.71 0 0 1-.37-1.06 5.32 5.32 0 0 1 .47-1.95 1 1 0 0 0 0-.79 6.88 6.88 0 0 0-.6-.71 7.27 7.27 0 0 1-2-3.39 3.05 3.05 0 0 1 .05-.52c.1-.15.15-.34.31-.44a1.71 1.71 0 0 1 .92-.41 4.15 4.15 0 0 1 2.02.26zm0 .05a4.07 4.07 0 0 0-1.9 0c-.61.13-1.19.57-1.06 1.21a7.1 7.1 0 0 0 2 3.16 6.41 6.41 0 0 1 .67.75 1.42 1.42 0 0 1 .1 1.1 4.87 4.87 0 0 0-.4 1.81 1.18 1.18 0 0 0 .26.74c.14.17.33.16.55 0a2.21 2.21 0 0 0 .76-1.5 4 4 0 0 0-.27-1.79l-.08-.23v-.2a.35.35 0 0 1 0-.19.29.29 0 0 1 .32-.21l.11.05h.08l.11.09.18.16.73.64a8.14 8.14 0 0 0 3.22 1.93 2.66 2.66 0 0 0 1.77.13 1.45 1.45 0 0 0 .69-.44.35.35 0 0 0-.12-.56 6 6 0 0 0-.86-.36 7.42 7.42 0 0 1-.89-.45 14.84 14.84 0 0 1-1.63-1.08q-.4-.28-.78-.6l-.19-.16-.09-.09v-.05a.13.13 0 0 1 0-.16c.09-.09.15-.05.13-.05h.14l.1.06.22.11a8.87 8.87 0 0 0 1.79.7 7.17 7.17 0 0 0 3.79.07 1.24 1.24 0 0 0 .71-.52.57.57 0 0 0-.26-.72 2.67 2.67 0 0 0-1.79-.32 10 10 0 0 1-3.91-.42l-.23-.07H99.41h.12a.38.38 0 0 0 .11-.16.18.18 0 0 0-.08-.19l.1.06.2.1a3.06 3.06 0 0 0 .88.17 8.52 8.52 0 0 0 1.88-.15c.31-.05.62-.13.93-.21a2 2 0 0 0 .78-.33c.1-.08.07-.11 0-.2a.78.78 0 0 0-.28-.25 2.66 2.66 0 0 0-.84-.32 4 4 0 0 0-1.84 0 4.07 4.07 0 0 1-2 .07c-1.37-.27-2.49-.89-3.78-1.13z" fill="#ff5d5d"/><path d="M67.53 289.18c-2 1-3.08 2.56-5.13 2.56s-4.1 2.05-2 2.05a6.56 6.56 0 0 0 4.1-1c1-1-1 1-3.59 1.54-2.21.45-2.51 2-.89 2.13a3.71 3.71 0 0 0 .89-.08 9 9 0 0 0 4.62-2.56c.51-.51-1.54 2.56-3.08 3.59s.51 2.05 2.05 1 2-1.54 3.59-4.1c.53-.88-.47 1.58 1 3.08 1 1 2 .51 1.54-1-.31-.94-1.5-1.63-1-2.56 3.75-7.53-1.9-4.95-2.1-4.65z" fill="#ffa5a5"/><path d="M67.54 289.19c-1.16.61-2.07 1.54-3.23 2.19a4 4 0 0 1-1.92.52 4.08 4.08 0 0 0-1.77.52 2.79 2.79 0 0 0-.71.56.71.71 0 0 0-.19.33c0 .09 0 .13.09.18a2.14 2.14 0 0 0 .84.08c.32 0 .64 0 1-.07a8.62 8.62 0 0 0 1.84-.41 2.7 2.7 0 0 0 .79-.42l.17-.15.08-.08a.16.16 0 0 0 0 .2c.06.06.07.09.15.12s.15 0 .12 0h-.05l-.1.07-.2.14a9.88 9.88 0 0 1-3.61 1.53 2.76 2.76 0 0 0-1.62.83.58.58 0 0 0 0 .77 1.25 1.25 0 0 0 .83.29 7 7 0 0 0 3.61-1.18 9.58 9.58 0 0 0 1.46-1.21l.17-.17.08-.09v-.05s0-.05.15 0 0 .16 0 .16v.06l-.06.11-.13.21q-.27.42-.57.81a17.87 17.87 0 0 1-1.25 1.51 9.28 9.28 0 0 1-.71.69 6 6 0 0 0-.72.59.36.36 0 0 0 0 .57 1.59 1.59 0 0 0 .8.22 2.65 2.65 0 0 0 1.65-.64 8.24 8.24 0 0 0 2.52-2.79l.5-.82.13-.21.08-.12.24-.04a.31.31 0 0 1 .09-.07.29.29 0 0 1 .37.09c.07.13 0 .16 0 .19v.45a4 4 0 0 0 .26 1.8 2.19 2.19 0 0 0 1.17 1.2c.25.07.44 0 .53-.17a1.23 1.23 0 0 0 0-.79 4.88 4.88 0 0 0-.91-1.61 1.42 1.42 0 0 1-.22-1.08 9 9 0 0 1 .41-.92 7 7 0 0 0 1-3.61c-.07-.64-.76-.89-1.37-.83a4.15 4.15 0 0 0-1.79.54zm0 0a4 4 0 0 1 1.82-.71 1.77 1.77 0 0 1 1 .12c.17.05.28.22.41.33a2.33 2.33 0 0 1 .21.49 7.32 7.32 0 0 1-.91 3.82 6.89 6.89 0 0 0-.36.85 1 1 0 0 0 .2.77 5.27 5.27 0 0 1 1 1.72 1.67 1.67 0 0 1 0 1.12.87.87 0 0 1-.49.45 1.12 1.12 0 0 1-.63 0 2.69 2.69 0 0 1-1.49-1.49 4.43 4.43 0 0 1-.32-2v-.4.07a.24.24 0 0 0 .32.08l-.06.09-.12.2-.52.83a13.94 13.94 0 0 1-1.17 1.6 8.12 8.12 0 0 1-1.52 1.3A3 3 0 0 1 63 299a1.83 1.83 0 0 1-1-.33.79.79 0 0 1-.31-.56.84.84 0 0 1 .23-.57 5.13 5.13 0 0 1 .78-.63 8.54 8.54 0 0 0 .71-.64 17.57 17.57 0 0 0 1.27-1.45c.19-.25.39-.51.57-.78l.13-.2.05-.09v-.05.09c0 .15.13 0 .11 0l-.08.09-.18.17a9.48 9.48 0 0 1-1.57 1.18 9 9 0 0 1-1.78.82c-.31.1-.63.18-1 .26s-.66.07-1 .1a1.37 1.37 0 0 1-1-.33.77.77 0 0 1-.2-.52 1.1 1.1 0 0 1 .2-.5 2.92 2.92 0 0 1 1.73-1 9.68 9.68 0 0 0 3.44-1.61l.2-.14.1-.07a.25.25 0 0 1 .18-.05c.09 0 .13 0 .16.12a.26.26 0 0 1-.05.26v.05l-.08.09-.19.18a3.59 3.59 0 0 1-.92.5 7.68 7.68 0 0 1-1.94.44q-.49 0-1 .06a2.29 2.29 0 0 1-1.06-.16.56.56 0 0 1-.28-.62 1.12 1.12 0 0 1 .3-.5 2.9 2.9 0 0 1 .82-.63 4.11 4.11 0 0 1 1.94-.52 3.79 3.79 0 0 0 1.81-.42c1.22-.47 2.24-1.35 3.42-1.88z" fill="#ff5d5d"/><path d="M99.21 280c-.58 5.89-3 10.47-5.43 10.23-1.08-.1-2-1.15-2.59-2.81a17.91 17.91 0 0 1-10.83 3.49 18.51 18.51 0 0 1-8.3-1.92 2.94 2.94 0 0 1-1.8 2.11c-2.35.64-5.51-3.47-7.07-9.18s-.92-10.86 1.42-11.5a2.27 2.27 0 0 1 1.59.21 14.49 14.49 0 0 1 4-3.95 21 21 0 0 1-.82-4.3v-.19c-1.39-.78-2.65-3.08-3.11-5.93-.61-3.71.38-7 2.21-7.26 1.07-.17 2.19.71 3.06 2.21 1.66-3 4.18-4.93 7.12-5.2 3.34-.29 6.52 1.67 8.79 5 .88-1.38 2-2.17 3-2 1.82.33 2.74 3.6 2.07 7.3a11.13 11.13 0 0 1-1.81 4.54 21.1 21.1 0 0 1-.32 5.67 14.79 14.79 0 0 1 3.54 3.22 2.61 2.61 0 0 1 2-.85c2.36.23 3.86 5.19 3.28 11.11z" fill="#fdfdfd"/><path d="M99.25 280a20.06 20.06 0 0 1-2.25 7.85 7.4 7.4 0 0 1-1.25 1.65 2.7 2.7 0 0 1-1.91.84 2.54 2.54 0 0 1-1.83-1 7.07 7.07 0 0 1-1-1.84l.3.08a17.06 17.06 0 0 1-4.45 2.42 18.22 18.22 0 0 1-5 1.11 19.91 19.91 0 0 1-5.11-.24 18.17 18.17 0 0 1-4.85-1.65l.45-.18a4.39 4.39 0 0 1-1 1.7 2.25 2.25 0 0 1-1.93.65 5.43 5.43 0 0 1-3.08-2.21 20.18 20.18 0 0 1-3.19-6.66 22.2 22.2 0 0 1-1-7.29 9 9 0 0 1 .84-3.59 2.84 2.84 0 0 1 1.34-1.31 2.22 2.22 0 0 1 1.87.13l-.17.05a14.82 14.82 0 0 1 4-4l-.07.19a22.16 22.16 0 0 1-.55-2.24c-.07-.38-.13-.76-.19-1.14s-.09-.75-.12-1.16l.1.16a5 5 0 0 1-1.71-1.77 10.24 10.24 0 0 1-1-2.2 13.89 13.89 0 0 1-.71-4.79 9.12 9.12 0 0 1 .38-2.42 4 4 0 0 1 1.4-2.14 2 2 0 0 1 1.32-.37 2.62 2.62 0 0 1 1.26.48 5.62 5.62 0 0 1 1.65 1.89h-.59a11.57 11.57 0 0 1 3.3-3.83 8.15 8.15 0 0 1 4.83-1.61 8.85 8.85 0 0 1 4.86 1.56 13.65 13.65 0 0 1 3.54 3.61h-.65a5.91 5.91 0 0 1 1.52-1.68 2.35 2.35 0 0 1 2.38-.31 3.25 3.25 0 0 1 1.51 1.79 7.81 7.81 0 0 1 .51 2.16 12.55 12.55 0 0 1-.33 4.32 11.12 11.12 0 0 1-1.77 4l.06-.2a21.66 21.66 0 0 1-.39 5.74l-.1-.24a15.25 15.25 0 0 1 3.55 3.3h-.26a3.09 3.09 0 0 1 1.69-.86 2.23 2.23 0 0 1 1.76.67 7.16 7.16 0 0 1 1.64 3.29 21.48 21.48 0 0 1 .4 7.29zm-.08 0a21.21 21.21 0 0 0-.47-7.24 6.84 6.84 0 0 0-1.65-3.15 2 2 0 0 0-1.56-.56 2.74 2.74 0 0 0-1.49.82l-.13.13-.12-.15a15.11 15.11 0 0 0-3.54-3.13l-.13-.08v-.15a20.64 20.64 0 0 0 .25-5.6v-.11l.07-.09a10.56 10.56 0 0 0 1.6-3.79 13.35 13.35 0 0 0 .26-4.08 6.71 6.71 0 0 0-.47-1.95 2.53 2.53 0 0 0-1.13-1.39 1.59 1.59 0 0 0-1.61.26 5.2 5.2 0 0 0-1.3 1.45l-.31.5-.34-.49a13.13 13.13 0 0 0-3.34-3.39 8.07 8.07 0 0 0-4.42-1.46 7.42 7.42 0 0 0-4.41 1.43 11.13 11.13 0 0 0-3.13 3.58l-.29.52-.3-.52a5.38 5.38 0 0 0-1.43-1.7 1.59 1.59 0 0 0-1.87-.14 3.56 3.56 0 0 0-1.18 1.8 8.71 8.71 0 0 0-.39 2.28 13.43 13.43 0 0 0 .61 4.62 6.88 6.88 0 0 0 2.48 3.78l.1.06v.11c0 .34.06.74.11 1.11s.1.75.17 1.12a18.2 18.2 0 0 0 .52 2.21v.12l-.1.07a14.44 14.44 0 0 0-4 3.88l-.06.09h-.1a2 2 0 0 0-1.67-.15 2.46 2.46 0 0 0-1.22 1.2 8.5 8.5 0 0 0-.76 3.5 22 22 0 0 0 1 7.16 19.25 19.25 0 0 0 3.22 6.43 4.88 4.88 0 0 0 2.75 1.94 1.6 1.6 0 0 0 1.41-.49 3.7 3.7 0 0 0 .82-1.45l.12-.35.33.16a18.88 18.88 0 0 0 9.62 1.85 17.88 17.88 0 0 0 9.26-3.28l.2-.15.09.24a6.74 6.74 0 0 0 .91 1.77 2.23 2.23 0 0 0 1.59 1 2.5 2.5 0 0 0 1.76-.74 6.36 6.36 0 0 0 1.25-1.57 19.79 19.79 0 0 0 2.42-7.84z" fill="#858585"/><path d="M67.83 250.32c.65 1.58 1.83 2.49 1.63 4s1.31 3.16 1.51 1.7a4.27 4.27 0 0 0-.45-3c-.76-.85.75.85.93 2.74.15 1.63 1.46 2 1.69.88a1.94 1.94 0 0 0 0-.65 6.35 6.35 0 0 0-1.68-3.59 9.65 9.65 0 0 1 2.69 2.61c.7 1.22 1.76-.13 1-1.35s-1.08-1.64-3.07-3c-.68-.48 1.28.51 2.67-.39 1-.61.63-1.4-.7-1.21-.83.12-1.51.88-2.24.44-5.81-3.7-4.21.64-3.98.82z" fill="#ffa5a5"/><path d="M67.85 250.3c.41.94 1.1 1.65 1.54 2.6a2.83 2.83 0 0 1 .23 1.54 2.51 2.51 0 0 0 .36 1.33c.22.39.68.78.73.41a5.24 5.24 0 0 0 .11-1.4 4.52 4.52 0 0 0-.27-1.39 1.87 1.87 0 0 0-.16-.28l-.11-.13-.06-.07h.06a.19.19 0 0 0 .19 0 .18.18 0 0 0 .08-.2c0-.08 0 0 0 0v.08l.1.16.19.34a7.08 7.08 0 0 1 .56 1.43c.16.5.15 1 .26 1.48s.42.92.86.93a.54.54 0 0 0 .45-.39 2.76 2.76 0 0 0 .07-.71 5.27 5.27 0 0 0-1-2.76 6 6 0 0 0-.44-.59l-.25-.28v-.05s0-.13.06-.15a.22.22 0 0 1 .1 0l.1.05.16.11c.41.3.8.63 1.17 1a11.12 11.12 0 0 1 1.07 1.1c.16.19.31.45.43.61s.31.26.45.2c.31-.13.44-.68.32-1.08a4.3 4.3 0 0 0-.69-1.22 9 9 0 0 0-2.2-1.97l-.31-.21-.09-.07-.15-.16a.36.36 0 0 1 0-.25.24.24 0 0 1 .14-.12h.31l.72.11a3.12 3.12 0 0 0 1.37-.15c.39-.13.85-.53.79-.73s-.17-.18-.38-.21a2.09 2.09 0 0 0-.66 0c-.44.07-.85.37-1.41.5a1.16 1.16 0 0 1-.87-.14l-.64-.38a6.85 6.85 0 0 0-2.71-1.07.94.94 0 0 0-.63.18.85.85 0 0 0-.26.6 2.59 2.59 0 0 0 .31 1.4zm0 0a2.65 2.65 0 0 1-.42-1.46 1.08 1.08 0 0 1 .28-.75 1.11 1.11 0 0 1 .77-.26 6.87 6.87 0 0 1 2.88 1l.67.37a.77.77 0 0 0 .58.06c.42-.11.85-.43 1.4-.56a2.61 2.61 0 0 1 .84 0 .9.9 0 0 1 .79.59 1 1 0 0 1-.37.9 2.42 2.42 0 0 1-.72.43 3.53 3.53 0 0 1-1.6.19c-.26 0-.53-.07-.77-.11h-.08.08a.23.23 0 0 0 .12-.12.28.28 0 0 0 0-.22c-.07-.11 0 0 0 0h.06l.31.22a9.67 9.67 0 0 1 2.27 2.07 4.5 4.5 0 0 1 .74 1.41 1.75 1.75 0 0 1 0 .85 1 1 0 0 1-.6.68.77.77 0 0 1-.85-.34c-.17-.25-.25-.43-.41-.63a11.43 11.43 0 0 0-1-1.1 14.82 14.82 0 0 0-1.12-1l-.15-.11h-.06s.06-.16.06-.12l.24.29c.16.2.31.4.45.61a6.08 6.08 0 0 1 1 2.85 2.59 2.59 0 0 1-.08.78.73.73 0 0 1-.61.54c-.63 0-1-.58-1.14-1.05s-.15-1-.32-1.47a7.63 7.63 0 0 0-.6-1.34l-.18-.32-.1-.15v-.09-.07a.22.22 0 0 1 .06-.24.23.23 0 0 1 .22 0c.1 0 .1.06.1.06l.07.07.13.16a2 2 0 0 1 .22.37 4 4 0 0 1 .3 1.54 5.12 5.12 0 0 1-.16 1.58.57.57 0 0 1-.39.38.69.69 0 0 1-.51-.12 1.91 1.91 0 0 1-.54-.64 2.68 2.68 0 0 1-.36-1.54 2.53 2.53 0 0 0-.14-1.42c-.42-.96-1.07-1.8-1.4-2.74z" fill="#ff5d5d"/><path d="M90.57 250.91c-.65 1.59-1.84 2.49-1.64 4s-1.31 3.17-1.51 1.7a4.28 4.28 0 0 1 .46-3c.75-.85-.76.85-.93 2.74-.16 1.64-1.46 2-1.69.89a2.23 2.23 0 0 1 0-.65 6.31 6.31 0 0 1 1.69-3.59 9.39 9.39 0 0 0-2.69 2.6c-.71 1.22-1.76-.13-1.06-1.34s1.08-1.65 3.07-3c.68-.48-1.27.52-2.66-.38-1-.62-.63-1.41.7-1.22.82.12 1.51.89 2.24.44 5.85-3.7 4.24.63 4.02.81z" fill="#ffa5a5"/><path d="M90.59 250.93c-.33.94-1 1.77-1.34 2.67a2.5 2.5 0 0 0-.14 1.41 2.72 2.72 0 0 1-.36 1.55 2.13 2.13 0 0 1-.54.63.65.65 0 0 1-.51.13.61.61 0 0 1-.39-.38 4.85 4.85 0 0 1-.17-1.58 4.24 4.24 0 0 1 .31-1.55 1.44 1.44 0 0 1 .22-.37l.13-.15.06-.07.09-.07a.21.21 0 0 1 .29.27v.19l-.1.16-.18.32a7.31 7.31 0 0 0-.6 1.34c-.17.46-.18.93-.33 1.46s-.5 1-1.13 1a.74.74 0 0 1-.62-.53 3 3 0 0 1-.07-.78 6 6 0 0 1 1-2.85 6.85 6.85 0 0 1 .45-.61l.24-.29s0 .11.06.12.07 0 .06 0h-.07l-.14.11c-.39.31-.76.64-1.12 1a10.24 10.24 0 0 0-1 1.1c-.16.2-.25.38-.42.63a.76.76 0 0 1-.85.33 1 1 0 0 1-.59-.68 1.64 1.64 0 0 1 0-.85 4.43 4.43 0 0 1 .73-1.4 9.48 9.48 0 0 1 2.28-2.07l.31-.22h.06s.06-.07 0 0a.22.22 0 0 0 0 .22.25.25 0 0 0 .12.11h.07-.09a6 6 0 0 1-.76.11 3.52 3.52 0 0 1-1.6-.18 2.68 2.68 0 0 1-.72-.44.94.94 0 0 1-.37-.9.89.89 0 0 1 .79-.58 2.3 2.3 0 0 1 .83 0c.56.12 1 .45 1.41.55a.73.73 0 0 0 .58-.06l.66-.36a6.92 6.92 0 0 1 2.89-1 1 1 0 0 1 1.05 1 2.7 2.7 0 0 1-.48 1.56zm0 0a2.63 2.63 0 0 0 .3-1.42.76.76 0 0 0-.89-.78 6.56 6.56 0 0 0-2.71 1.07l-.64.38a1.16 1.16 0 0 1-.87.13c-.56-.13-1-.43-1.41-.49a2.11 2.11 0 0 0-.66 0c-.21 0-.38.13-.38.21s.39.6.79.74a3 3 0 0 0 1.36.14 6.29 6.29 0 0 0 .72-.11h.31a.29.29 0 0 1 .14.13.28.28 0 0 1 0 .25c-.1.16-.1.11-.14.16l-.09.06-.31.21a9.3 9.3 0 0 0-2.2 1.92 4.91 4.91 0 0 0-.69 1.23c-.11.4 0 .95.33 1.07a.4.4 0 0 0 .44-.19 7.09 7.09 0 0 1 .44-.61 11.06 11.06 0 0 1 1.06-1.1c.38-.34.77-.66 1.18-1l.16-.11.1-.06a.12.12 0 0 1 .09 0c.09 0 .07.18.06.14v.06l-.25.28a6.55 6.55 0 0 0-.45.59 5.39 5.39 0 0 0-1 2.76 2.68 2.68 0 0 0 .08.7.54.54 0 0 0 .45.4c.44 0 .74-.5.86-.93s.1-1 .26-1.48a6.82 6.82 0 0 1 .56-1.44l.19-.33.09-.17v-.08a.18.18 0 0 0 .08.2.19.19 0 0 0 .2 0h.06l-.06.06-.11.14a1.08 1.08 0 0 0-.16.28 4.24 4.24 0 0 0-.27 1.39 4.86 4.86 0 0 0 .11 1.4c0 .37.51 0 .73-.42a2.6 2.6 0 0 0 .36-1.33 2.88 2.88 0 0 1 .19-1.48c.44-.95 1.14-1.67 1.55-2.6z" fill="#ff5d5d"/><path d="M90.05 240h-.46A10.12 10.12 0 0 1 70 241.32a8.29 8.29 0 1 1 2-9.79 10.56 10.56 0 0 1 3.44-3.05c.81-.35.89-1.56 1.79-1.68a5.4 5.4 0 0 0 2.36 0c.38-.13.66.74 1 .78 2.54.31 5 2.11 6.57 3.94a7 7 0 0 1 1.63-.42c3.09-.42 5.87 1.23 6.2 3.67s-1.85 4.77-4.94 5.23z" fill="#fdfdfd"/><path d="M90.05 240l-.46.05a10.45 10.45 0 0 1-3.18 5.82 10.32 10.32 0 0 1-6.12 2.72 10.13 10.13 0 0 1-6.56-1.69 10.38 10.38 0 0 1-4.06-5.44l.48.14a8.51 8.51 0 0 1-4.84 2 8.57 8.57 0 0 1-9.09-10.17 8.55 8.55 0 0 1 12.43-5.86 8.71 8.71 0 0 1 3.66 3.84l-.61-.08a10.76 10.76 0 0 1 3.59-3.19 1.82 1.82 0 0 0 .62-.7 1.93 1.93 0 0 1 1.06-1 1.47 1.47 0 0 1 .42 0h.34c.2 0 .37.08.55.1a2.64 2.64 0 0 0 1-.07h.25a.55.55 0 0 1 .18 0 .76.76 0 0 1 .47.26 5.09 5.09 0 0 1 .39.46c.17.13 0 .06.29.11a6 6 0 0 1 .61.12 9.11 9.11 0 0 1 2.27.9 13.38 13.38 0 0 1 3.68 3.05l-.36-.09a7.18 7.18 0 0 1 4.51-.19A5 5 0 0 1 95 233.9a3.84 3.84 0 0 1 .1 2.25 5 5 0 0 1-1.1 1.93 6.5 6.5 0 0 1-3.95 1.92zm0-.07a6.42 6.42 0 0 0 3.82-1.93 4.37 4.37 0 0 0 1-1.88 3.63 3.63 0 0 0-.17-2.09 4.58 4.58 0 0 0-3.22-2.51 7 7 0 0 0-4.14.32l-.21.09-.16-.18a14 14 0 0 0-3.55-2.82 8.08 8.08 0 0 0-2.09-.81 3.41 3.41 0 0 0-.54-.1 1.94 1.94 0 0 1-.38-.09 1 1 0 0 1-.36-.27c-.16-.17-.27-.34-.37-.43s-.08-.05 0 0h-.15a3.23 3.23 0 0 1-1.31.11c-.42-.05-.86-.2-1-.12s-.4.29-.6.62a2.47 2.47 0 0 1-1 1 10 10 0 0 0-3.37 3l-.37.42-.24-.51a8.06 8.06 0 0 0-15.15 1.76 8 8 0 0 0 3.89 8.69 8.06 8.06 0 0 0 9.37-1l.33-.31.15.44A10 10 0 0 0 89.55 240z" fill="#858585"/><rect x="90.68" y="230.03" width="3.9" height="3.57" rx="1.79" ry="1.79" transform="rotate(-47.67 92.60855 231.80162)" fill="#ffa5a5"/><path d="M91.3 233.28a2.22 2.22 0 0 1-.72-1.34 1.7 1.7 0 0 1 .58-1.47 2.09 2.09 0 0 1 1.41-.63 2.16 2.16 0 0 1 1.46.44 1.88 1.88 0 0 1 .73 1.42 2 2 0 0 1-.61 1.5 1.85 1.85 0 0 1-1.45.68 2.24 2.24 0 0 1-1.4-.6zm0 0a1.47 1.47 0 0 0 1.34.31 1.93 1.93 0 0 0 1.08-.71 1.68 1.68 0 0 0 .1-2.36 1.5 1.5 0 0 0-1.27-.48 1.69 1.69 0 0 0-1.12.75 2.27 2.27 0 0 0-.56 1.19 1.47 1.47 0 0 0 .46 1.26z" fill="#ff5d5d"/><g><circle cx="79.93" cy="234.93" r="2.08" fill="#fdfdfd"/><path d="M82 234.93a2.53 2.53 0 0 1-.53 1.58 1.91 1.91 0 0 1-1.58.71 2.32 2.32 0 0 1-1.53-.76 2.49 2.49 0 0 1-.69-1.53 2.21 2.21 0 0 1 2.22-2.35 2 2 0 0 1 1.59.76 2.53 2.53 0 0 1 .52 1.59zm-.05 0a1.73 1.73 0 0 0-.71-1.36 2.18 2.18 0 0 0-1.35-.46 2 2 0 0 0-2 1.82 1.75 1.75 0 0 0 .53 1.41 1.84 1.84 0 0 0 1.42.46 2.48 2.48 0 0 0 1.36-.51 1.75 1.75 0 0 0 .8-1.36z" fill="#666"/></g><g><circle cx="83.5" cy="230.76" r="1.49" fill="#fdfdfd"/><path d="M82 230.76a1.86 1.86 0 0 1 .35-1.16 1.33 1.33 0 0 1 1.16-.54 1.74 1.74 0 0 1 1.11.59 1.88 1.88 0 0 1 .51 1.11 1.61 1.61 0 0 1-1.62 1.75 1.44 1.44 0 0 1-1.17-.58 2 2 0 0 1-.34-1.17zm.05 0a1.15 1.15 0 0 0 .52.94 1.74 1.74 0 0 0 .94.28 1.37 1.37 0 0 0 1.35-1.22 1.16 1.16 0 0 0-.36-1 1.25 1.25 0 0 0-1-.28 1.92 1.92 0 0 0-.94.34 1.15 1.15 0 0 0-.56.94z" fill="#666"/></g><circle cx="80.66" cy="234.4" r="1.05" fill="#1f1f1f"/><circle cx="84.12" cy="230.51" r=".75" fill="#1f1f1f"/><ellipse cx="87.37" cy="240.73" rx="1.34" ry=".97" transform="rotate(-30 87.37597 240.73232)" fill="#1f1f1f"/><g><path d="M70 233.34c-1.48-1.84-4.37-5-7.62-3.58" fill="#fdfdfd"/><path d="M70 233.34a31.38 31.38 0 0 0-3.48-2.78 5.25 5.25 0 0 0-4.14-.8 3.5 3.5 0 0 1 2.26-.61 4.92 4.92 0 0 1 2.27.77 9 9 0 0 1 3.09 3.42z" fill="#858585"/></g><g><path d="M60 231.82c-2.38 3.11-1.19 6.83 0 7.57" fill="#fdfdfd"/><path d="M60 231.82c-.24.68-.46 1.3-.62 1.93a8.92 8.92 0 0 0-.24 1.91 8.69 8.69 0 0 0 .14 1.9 4.42 4.42 0 0 0 .72 1.83 2.73 2.73 0 0 1-1.46-1.59 5 5 0 0 1-.4-2.17 5.42 5.42 0 0 1 .51-2.14 4.6 4.6 0 0 1 1.35-1.67z" fill="#858585"/></g></g><g><path fill="none" stroke="#373737" stroke-miterlimit="10" d="M21.49 203.19h113.52v98.57H21.49zM33.33 203.56v98.57M44.71 203.56v98.57M56.1 203.56v98.57M67.48 203.56v98.57M78.86 203.19v98.57M90.24 203.56v98.57M101.63 203.56v98.57M113.01 203.56v98.57M124.39 203.56v98.57"/></g><g><path d="M182.6 292.67a3 3 0 0 1-1.7 5.38h-18.53a3 3 0 0 1-3-3 2.91 2.91 0 0 1 .87-2.09 3.09 3.09 0 0 1 .39-.33A18.21 18.21 0 0 1 152 277.3c0-8.15 5.58-15.07 13.34-17.55v-22.5a1.85 1.85 0 0 1 .37-3.67h11.11a1.85 1.85 0 0 1 1.86 1.85 1.83 1.83 0 0 1-.55 1.31 1.88 1.88 0 0 1-.94.51v22.28c8.15 2.26 14.08 9.36 14.08 17.77a18.21 18.21 0 0 1-8.67 15.37z" fill="none" stroke="#aeaeae" stroke-miterlimit="10"/><path d="M182.6 292.67a3 3 0 0 1-1.7 5.38h-18.53a3 3 0 0 1-3-3 2.91 2.91 0 0 1 .87-2.09 3.09 3.09 0 0 1 .39-.33A18.21 18.21 0 0 1 152 277.3c0-4 9.49-2.4 19.14-2.5 10-.1 20.13-1.77 20.13 2.5a18.21 18.21 0 0 1-8.67 15.37z" fill="#828282"/><path d="M167.66 238.77c.16 1.29.26 2.59.4 3.89l.3 3.89a21.1 21.1 0 0 1 .2 3.89 13.45 13.45 0 0 1-.9 3.89h-.2a13.13 13.13 0 0 1-.9-3.89 21.1 21.1 0 0 1 .2-3.89l.3-3.89c.13-1.3.24-2.6.4-3.89zM156 271a9.54 9.54 0 0 1 .83-3.6 11.5 11.5 0 0 1 2-3.09 8.54 8.54 0 0 1 3.09-2.26 4.29 4.29 0 0 1 3.9.1 8.43 8.43 0 0 0-2.66 1.91c-.72.7-1.39 1.48-2.1 2.26s-1.45 1.59-2.25 2.39A17.06 17.06 0 0 1 156 271z" fill="#aeaeae"/></g></g><g><path d="M693 262.87c7.93.84 22.3.45 24.52 4.17s4.6 11.61 1.11 15.15-2.26 7.4-7.55 1.1 6.09-10-3.93-10.84c-9.13-.79-16.91 3.85-18.52-2.6s4.37-6.98 4.37-6.98z" fill="#dcdcdc"/><path d="M693 262.87c4 .38 8.08.45 12.12.74 2 .14 4 .29 6.05.59a23.69 23.69 0 0 1 3 .62 8.3 8.3 0 0 1 2.83 1.28 3.53 3.53 0 0 1 1 1.24c.27.44.49.9.72 1.37a26 26 0 0 1 1.13 2.85 17.49 17.49 0 0 1 1 6.11 9.09 9.09 0 0 1-.68 3.1 11 11 0 0 1-1.85 2.53 22 22 0 0 0-1.63 2.5 4.55 4.55 0 0 1-.47.67l-.33.34a2.57 2.57 0 0 1-.49.26 2 2 0 0 1-.58.05 3.65 3.65 0 0 1-.5-.13 4 4 0 0 1-.75-.46 16.54 16.54 0 0 1-2.21-2.22 9.44 9.44 0 0 1-1.78-2.63 5.91 5.91 0 0 1-.38-1.61 6 6 0 0 1 .15-1.64 12.72 12.72 0 0 1 1.25-2.88 4.36 4.36 0 0 0 .48-1.25.71.71 0 0 0-.11-.44 1.43 1.43 0 0 0-.46-.35 9.49 9.49 0 0 0-2.81-.67 31.63 31.63 0 0 0-6-.07c-2 .14-4 .44-6 .61a16.36 16.36 0 0 1-3 0 4.53 4.53 0 0 1-2.77-1.22 4.31 4.31 0 0 1-.87-1.26 8.52 8.52 0 0 1-.43-1.47 6.42 6.42 0 0 1 0-3 4.37 4.37 0 0 1 1.69-2.47 6.36 6.36 0 0 1 2.68-1.09zm0 0a6.28 6.28 0 0 0-2.79 1.1 4.34 4.34 0 0 0-1.64 2.45 6.43 6.43 0 0 0 0 3 7.89 7.89 0 0 0 .44 1.43 4 4 0 0 0 .85 1.21 4.09 4.09 0 0 0 2.69 1.1 14.34 14.34 0 0 0 3-.09c2-.23 4-.58 6-.79a32.06 32.06 0 0 1 6.12-.11 10.11 10.11 0 0 1 3.08.65 2.26 2.26 0 0 1 .75.56 1.54 1.54 0 0 1 .29 1 4.53 4.53 0 0 1-.54 1.58 12.19 12.19 0 0 0-1.14 2.69 4.31 4.31 0 0 0 .22 2.7 8.62 8.62 0 0 0 1.65 2.34 15.53 15.53 0 0 0 2.08 2.06 3.71 3.71 0 0 0 .53.35l.23.06h.18c.07 0 .52-.46.77-.86a23.39 23.39 0 0 1 1.72-2.56 10.09 10.09 0 0 0 1.76-2.32 8.12 8.12 0 0 0 .64-2.78 17.54 17.54 0 0 0-.76-5.86 21.9 21.9 0 0 0-1-2.81c-.2-.45-.41-.91-.65-1.35a3.17 3.17 0 0 0-.85-1.12 7.83 7.83 0 0 0-2.63-1.27 24.48 24.48 0 0 0-2.93-.7c-2-.35-4-.59-6-.75-3.96-.36-8.02-.48-12.07-.91z" fill="#c4c4c4"/><path d="M613.74 502.83a3.57 3.57 0 0 0-1.15 2.31 3.81 3.81 0 0 0 1.23 3 5.65 5.65 0 0 0 3.46 1.5l53 4.44c2.77.24 5.19-1.42 5.38-3.68a3.64 3.64 0 0 0-.88-2.64 6.56 6.56 0 0 0 2.18-4.17c.51-6.07-9.23-11.83-21.75-12.88-7.08-.59-13.54.46-17.92 2.57a18.4 18.4 0 0 0-8.92-3.05c-8-.66-14.79 3.32-15.26 8.89a7.57 7.57 0 0 0 .63 3.71z" fill="#929292"/><path d="M613.74 502.83a3.6 3.6 0 0 0-1.07 2A3.39 3.39 0 0 0 613 507a5 5 0 0 0 3.57 2.47c3 .3 6.07.46 9.1.69l18.22 1.39 18.23 1.45 4.56.38 2.27.18a17.11 17.11 0 0 0 2.21.11 4.55 4.55 0 0 0 3.52-1.88 3 3 0 0 0 .48-1.87 3.28 3.28 0 0 0-.78-1.8l-.3-.35.34-.31a5.6 5.6 0 0 0 1.93-5.21 8.63 8.63 0 0 0-3.26-4.84 28.6 28.6 0 0 0-11.18-5.11 46.5 46.5 0 0 0-12.39-1.3 31.71 31.71 0 0 0-12.1 2.58l-.18.08-.16-.11a17.85 17.85 0 0 0-7.44-2.89 20.32 20.32 0 0 0-8 .36 12.73 12.73 0 0 0-6.81 4.12 7.41 7.41 0 0 0-1.09 7.69zm0 0a7.53 7.53 0 0 1 .9-7.79 13.08 13.08 0 0 1 6.86-4.39 19.56 19.56 0 0 1 4.08-.69 22 22 0 0 1 4.14.17 18.44 18.44 0 0 1 7.75 2.89h-.34a32 32 0 0 1 12.36-2.82 47.93 47.93 0 0 1 12.63 1.2 29.73 29.73 0 0 1 11.59 5.25 9.59 9.59 0 0 1 3.62 5.41 3 3 0 0 1 .1.85v.86a6.31 6.31 0 0 1-.41 1.66 7.8 7.8 0 0 1-1.93 2.72v-.66a4.25 4.25 0 0 1 1 2.34 4 4 0 0 1-.64 2.47 5.46 5.46 0 0 1-4.25 2.29 17.59 17.59 0 0 1-2.35-.12l-2.28-.2-4.55-.39-18.2-1.6-18.2-1.67c-3-.31-6.06-.54-9.11-.92a5.2 5.2 0 0 1-3.63-2.64 3.51 3.51 0 0 1-.3-2.25 3.62 3.62 0 0 1 1.16-1.97z" fill="#7b7b7b"/><path d="M600.8 502.83a3.57 3.57 0 0 1 1.15 2.31 3.81 3.81 0 0 1-1.23 3 5.65 5.65 0 0 1-3.46 1.5l-53 4.44c-2.77.24-5.19-1.42-5.38-3.68a3.64 3.64 0 0 1 .88-2.64 6.56 6.56 0 0 1-2.18-4.17c-.51-6.07 9.23-11.83 21.75-12.88 7.08-.59 13.54.46 17.92 2.57a18.4 18.4 0 0 1 8.92-3.05c8-.66 14.79 3.32 15.26 8.89a7.57 7.57 0 0 1-.63 3.71z" fill="#929292"/><path d="M600.8 502.83a3.62 3.62 0 0 1 1.13 1.95 3.51 3.51 0 0 1-.3 2.25 5.2 5.2 0 0 1-3.63 2.64c-3 .38-6.07.61-9.11.92l-18.2 1.67-18.2 1.6-4.55.39-2.28.2a17.59 17.59 0 0 1-2.35.12 5.46 5.46 0 0 1-4.25-2.29 4 4 0 0 1-.64-2.47 4.25 4.25 0 0 1 1-2.34v.66a7.8 7.8 0 0 1-1.93-2.72 6.31 6.31 0 0 1-.41-1.66v-.86a3 3 0 0 1 .1-.85 9.59 9.59 0 0 1 3.62-5.41 29.73 29.73 0 0 1 11.59-5.25 47.93 47.93 0 0 1 12.63-1.2 32 32 0 0 1 12.39 2.82h-.34a18.44 18.44 0 0 1 7.75-2.89A22 22 0 0 1 589 490a19.56 19.56 0 0 1 4.08.69 13.08 13.08 0 0 1 6.82 4.31 7.53 7.53 0 0 1 .9 7.83zm0 0a7.41 7.41 0 0 0-1.06-7.66 12.73 12.73 0 0 0-6.81-4.12 20.32 20.32 0 0 0-8-.36 17.85 17.85 0 0 0-7.44 2.89l-.16.11-.18-.08A31.71 31.71 0 0 0 565 491a46.5 46.5 0 0 0-12.39 1.24 28.6 28.6 0 0 0-11.18 5.11 8.63 8.63 0 0 0-3.26 4.84 5.6 5.6 0 0 0 1.93 5.21l.34.31-.3.35a3.28 3.28 0 0 0-.78 1.8 3 3 0 0 0 .48 1.87 4.55 4.55 0 0 0 3.52 1.88 17.11 17.11 0 0 0 2.21-.11l2.27-.18 4.56-.38 18.21-1.44 18.22-1.39c3-.23 6.1-.39 9.1-.69a5 5 0 0 0 3.57-2.47 3.39 3.39 0 0 0 .35-2.19 3.6 3.6 0 0 0-1.05-1.93z" fill="#7b7b7b"/><path d="M640.63 493.79c-1.59 2.33-6.63 2.88-10.21 3.19-5.52.47-15.33.18-15.68-7.06l1.47-6.14L615 398.2l-6.56-53.61H607l-7 53.61-3 86.35 1.43 5.54c-.5 7.21-11.41 7.35-16.92 6.69-4.13-.49-9-2.2-10.19-5.63-.39-1.13 1-1.64 1.08-3.45l5.88-147.7c3.41-5.44 60.62-4.28 59.1-1.65l2.42 151.21c.13 2.51 1.69 2.97.83 4.23z" fill="#a9a9a9"/><path d="M640.63 493.79a6.15 6.15 0 0 1-3.12 2 21.28 21.28 0 0 1-3.68.83 48.7 48.7 0 0 1-7.53.51 24.92 24.92 0 0 1-3.76-.35 13.8 13.8 0 0 1-3.62-1 7.37 7.37 0 0 1-3-2.27 6.83 6.83 0 0 1-1.23-3.54l1.47-6.14-1.34-85.57-6.64-53.6.24.22H607l.25-.22-6.89 53.62-2.89 86.36v-.13l1.44 5.54v.14c-.09.5-.14 1-.28 1.51a5.92 5.92 0 0 1-.63 1.3l-.42.65c-.17.2-.35.38-.53.56a6.7 6.7 0 0 1-1.17 1 13.82 13.82 0 0 1-5.57 2 29.87 29.87 0 0 1-5.82.31 28.49 28.49 0 0 1-5.79-.72 14.94 14.94 0 0 1-5.41-2.37 7.26 7.26 0 0 1-2-2.29 7.65 7.65 0 0 1-.32-.71 1.79 1.79 0 0 1-.09-1 5.66 5.66 0 0 1 .71-1.4 3 3 0 0 0 .38-1.18c0-.42 0-.94.07-1.4l.11-2.87.24-5.75 1.89-45.94L578 340v-.14a3.6 3.6 0 0 1 1.65-1.18 12.16 12.16 0 0 1 1.82-.61 33.89 33.89 0 0 1 3.71-.76c2.49-.39 5-.63 7.49-.82 5-.37 10-.53 15-.58s10 0 15 .23c2.51.11 5 .24 7.51.46 1.25.1 2.5.23 3.75.41.62.09 1.25.18 1.87.32a8.08 8.08 0 0 1 .93.26 2.42 2.42 0 0 1 .47.21 1 1 0 0 1 .24.22.9.9 0 0 1 .08.21.94.94 0 0 1-.06.24v-.11l1.14 77.86.57 38.93.28 19.47.14 9.73.08 4.86a5.29 5.29 0 0 0 .49 2.36c.16.38.38.72.51 1.11a1.2 1.2 0 0 1-.04 1.11zm0 0a1.2 1.2 0 0 0 .18-1.15c-.14-.39-.36-.73-.52-1.1a5.52 5.52 0 0 1-.5-2.37l-.08-4.86-.17-9.73-.34-19.47-.68-38.93-1.35-77.85v-.12a.59.59 0 0 0-.11-.09 2 2 0 0 0-.39-.17 6 6 0 0 0-.88-.24c-.6-.14-1.21-.23-1.83-.32-1.23-.17-2.48-.29-3.72-.39-2.5-.21-5-.34-7.5-.43-5-.2-10-.25-15-.19s-10 .23-15 .61c-2.49.2-5 .45-7.44.84a36.87 36.87 0 0 0-3.65.75 13.19 13.19 0 0 0-1.74.59 3.46 3.46 0 0 0-1.38.95l.05-.14L575 431.9l-1.76 46-.22 5.75-.12 2.87c0 .49 0 .93-.07 1.46a4 4 0 0 1-.51 1.54 6 6 0 0 0-.61 1.14.74.74 0 0 0 0 .43 6.28 6.28 0 0 0 .27.59 6 6 0 0 0 1.76 2 14 14 0 0 0 5 2.22 27.42 27.42 0 0 0 5.59.71 29.61 29.61 0 0 0 5.65-.28 13.09 13.09 0 0 0 5.2-1.79 5.71 5.71 0 0 0 2.66-4.4v.14l-1.42-5.54v-.12l3.13-86.35 7-53.6v-.21h1.89v.21l6.48 53.62 1.11 85.58-1.47 6.14a6.63 6.63 0 0 0 1.2 3.49 7.38 7.38 0 0 0 3 2.26 13.75 13.75 0 0 0 3.61 1.06 23.45 23.45 0 0 0 3.75.35 47.34 47.34 0 0 0 7.52-.48 20.84 20.84 0 0 0 3.68-.82 6.09 6.09 0 0 0 3.31-2.08z" fill="#8e8e8e"/><path data-name="beaker" d="M697.65 309.49a3.57 3.57 0 0 1-.32 2.46 3.76 3.76 0 0 1-1.39 1.58 1.65 1.65 0 0 1-1.57.19l-10.54-5.16c-.93-.46-1.12-2-.42-3.42a3.76 3.76 0 0 1 1.39-1.58 2 2 0 0 1 .36-.18c-1.55-4.37-1.1-10.26 1.64-15.85 3.49-7.13 9.63-11.63 15.1-11.63l9.63-19.68a1.79 1.79 0 0 1-.07-2 2.41 2.41 0 0 1 .87-1 1 1 0 0 1 1-.11l6.32 3.1c.59.28.7 1.24.27 2.13a2.41 2.41 0 0 1-.87 1 1.19 1.19 0 0 1-.75.18L708.74 279c3.67 4.25 4 12.11.41 19.46-2.74 5.6-7.1 9.54-11.5 11.03z" fill="none" stroke="#aeaeae" stroke-miterlimit="10"/><path data-name="liquid" d="M697.65 309.49a3.57 3.57 0 0 1-.32 2.46 3.76 3.76 0 0 1-1.39 1.58 1.65 1.65 0 0 1-1.57.19l-10.54-5.16c-.93-.46-1.12-2-.42-3.42a3.76 3.76 0 0 1 1.39-1.58 2 2 0 0 1 .36-.18c-1.55-4.37-1.1-10.26 1.64-15.85.56-1.14 3.87 3.29 5 3.43a53.47 53.47 0 0 0 12.63.38c8.49-1 6.57 3.38 4.74 7.12-2.76 5.6-7.12 9.54-11.52 11.03z" fill="#f2f2f2"/><path d="M712.23 258.21c-.41 1.2-.87 2.38-1.3 3.58l-1.4 3.53a19.87 19.87 0 0 1-1.48 3.49 12.9 12.9 0 0 1-2.47 3l-.18-.09a12.63 12.63 0 0 1 .85-3.8 20.27 20.27 0 0 1 1.85-3.31l1.93-3.27c.68-1.08 1.33-2.17 2-3.23z" fill="#aeaeae" data-name="stem-hl"/><path d="M691.78 283.11a7.47 7.47 0 0 1 1.3-2.77 8.93 8.93 0 0 1 2.1-2.06A7.39 7.39 0 0 1 698 277a4.1 4.1 0 0 1 1.74 0 1.94 1.94 0 0 1 1.38 1 2.44 2.44 0 0 0-1.29.44c-.33.2-.64.45-1 .69-.63.5-1.28 1-2 1.51a19.56 19.56 0 0 1-2.29 1.38 10 10 0 0 1-2.76 1.09z" fill="#aeaeae" data-name="bd-hl"/><path d="M697.62 263.11c7 3.9 4.09 5.83 3.24 9.05s8.74 7.92 6.64 10.12-2.06 2.13-4.42.56-13.27-8.46-12.23-15 6.77-4.73 6.77-4.73z" fill="#dcdcdc"/><path d="M697.62 263.11a17.79 17.79 0 0 1 3.06 2.09 5.43 5.43 0 0 1 1.18 1.43 3 3 0 0 1 .35 1.82c-.19 1.26-.84 2.36-1.13 3.54a2 2 0 0 0 .23 1.65 7.36 7.36 0 0 0 1.08 1.43c.84.88 1.78 1.68 2.72 2.49a16.73 16.73 0 0 1 2.67 2.71 3 3 0 0 1 .44 1 1.48 1.48 0 0 1-.31 1.23 16.25 16.25 0 0 1-1.35 1.4 2.23 2.23 0 0 1-1 .54 1.85 1.85 0 0 1-1.19-.24c-.61-.32-1.1-.68-1.62-1a51.85 51.85 0 0 1-6-4.49 23.79 23.79 0 0 1-4.86-5.71 9.08 9.08 0 0 1-1.18-3.57 7.68 7.68 0 0 1 .68-3.67 4.68 4.68 0 0 1 2.59-2.56 5.94 5.94 0 0 1 3.64-.09zm0 0a5.88 5.88 0 0 0-3.64.12 4.56 4.56 0 0 0-2.49 2.57 7.37 7.37 0 0 0-.49 3.58 8.61 8.61 0 0 0 1.31 3.36 23.66 23.66 0 0 0 5 5.31 65.62 65.62 0 0 0 6 4.31c.52.34 1 .71 1.51 1s.68.21 1.17-.17.89-.84 1.26-1.24a.58.58 0 0 0 .15-.5 2.32 2.32 0 0 0-.29-.69 17.14 17.14 0 0 0-2.42-2.67c-.88-.85-1.8-1.7-2.62-2.66a7.57 7.57 0 0 1-1.07-1.58 2.35 2.35 0 0 1-.17-1.92 30.49 30.49 0 0 0 1.29-3.47 3.64 3.64 0 0 0-1.41-3.21 18.74 18.74 0 0 0-3.09-2.14z" fill="#c4c4c4"/><path d="M682.54 280.54c-27-6.69-26.35-15.5-41.67-17.6-2.09-.28-12.24-6.85-14.4-7.64.69 3.51-2.7 13.11-2.18 16.77 2.21 15.6 6.49 27.64 10.33 43.19 2.06 9.53 5 20.74 2.49 32.32-4.59 20.78-3.34 20.12-16.13 26-4.89 2.27-1.92-31.73-6.87-32.83s-31.26 39.55-34.77 35.34c-9-10.79-11.46-22.17-6.89-42.84a81 81 0 0 1 7.77-21.11 196.39 196.39 0 0 1-7-31.18c-2.18-15.37 2.46-27 3.62-39.63.22 15.5-10.3 25.19-9.4 36.09.93 11.22-2.92 20.05 3 30.05s2.49 10.95.71 14.25-5 7.51-14.48 2.43c-3.23-1.71-1.39-8.89-6-24.71-.19-.66-1.38-18 .5-27.52 3-15.42 5.89-68.15 30.4-67.81 3.24-4.86 7.16-7.87 11.64-8.5 6-.85 12.25 2.68 18.09 9.51.61.09 1.28.64 2 1.71 6 8.6 21.09 26.86 21.09 26.86 20 10.12 12.05 19.93 33 21.52s31 8.09 41 7.34-11.05 21.67-25.85 17.99z" fill="#fff"/><path d="M682.53 280.59a97.59 97.59 0 0 1-14.71-4.8 63.8 63.8 0 0 1-6.92-3.46c-2.25-1.27-4.39-2.73-6.57-4.1a36.57 36.57 0 0 0-6.84-3.52c-.61-.2-1.21-.44-1.82-.61l-1.87-.48c-.62-.15-1.26-.23-1.89-.35a8.24 8.24 0 0 1-1.91-.44c-4.75-2.11-9-5.14-13.6-7.35l.25-.22a14.89 14.89 0 0 1-.23 4.43c-.24 1.45-.55 2.88-.84 4.31s-.6 2.86-.83 4.29a12.16 12.16 0 0 0-.15 4.29 170.11 170.11 0 0 0 3.5 17.14c1.43 5.66 3.06 11.27 4.6 16.91.77 2.82 1.51 5.64 2.23 8.49s1.29 5.7 1.87 8.57a67.21 67.21 0 0 1 1.6 17.5l-.19 2.21-.3 2.19c-.26 1.46-.56 2.89-.87 4.31-.62 2.86-1.21 5.72-1.87 8.57-.16.72-.33 1.43-.53 2.14s-.38 1.42-.61 2.13a15.93 15.93 0 0 1-1.83 4.09 10.23 10.23 0 0 1-1.44 1.77A14 14 0 0 1 629 370a32 32 0 0 1-3.88 2.15c-1.33.64-2.64 1.25-4 1.87a1.35 1.35 0 0 1-1.45-.23 3 3 0 0 1-.71-1.05 11 11 0 0 1-.64-2.18 70.6 70.6 0 0 1-.94-8.76l-.52-8.75a61.84 61.84 0 0 0-1.06-8.63 12.87 12.87 0 0 0-.64-2c-.28-.61-.7-1.23-1.2-1.26a3.25 3.25 0 0 0-1.73.78 18 18 0 0 0-1.65 1.38 80 80 0 0 0-5.91 6.41c-3.76 4.46-7.37 9.05-11.07 13.58-1.84 2.27-3.71 4.52-5.64 6.72-1 1.1-2 2.18-3 3.22a20.8 20.8 0 0 1-3.37 2.89 4.5 4.5 0 0 1-1.06.5 1.29 1.29 0 0 1-1.28-.21c-.54-.6-.93-1.16-1.41-1.74-.87-1.18-1.74-2.37-2.49-3.63a35.75 35.75 0 0 1-3.67-8 37 37 0 0 1-1.56-8.66 51.47 51.47 0 0 1 .15-8.78 88.81 88.81 0 0 1 9.81-33.49v.12q-2.7-8.6-4.56-17.41-.93-4.41-1.68-8.85c-.49-3-1-5.92-1.18-8.93a73.08 73.08 0 0 1 1.12-18c1-5.92 2.31-11.78 2.86-17.73h.52a39.77 39.77 0 0 1-2.71 14.38c-1.65 4.61-3.94 8.94-5.45 13.54a22.17 22.17 0 0 0-1.19 7.06c0 1.18.14 2.43.16 3.65s0 2.45 0 3.67c-.15 4.89-.82 9.75-.21 14.54a22.9 22.9 0 0 0 2 6.88c1 2.14 2.43 4.2 3.4 6.48a14 14 0 0 1 1.1 3.59 5.83 5.83 0 0 1-.63 3.79c-.62 1.15-1.44 2-2 3.07a12.2 12.2 0 0 1-2.23 3.05 6.88 6.88 0 0 1-3.42 1.77 9.17 9.17 0 0 1-3.8-.1 18.3 18.3 0 0 1-3.56-1.16c-.57-.24-1.11-.54-1.67-.8-.14-.08-.28-.13-.42-.22l-.44-.31a3.42 3.42 0 0 1-.7-.77 10 10 0 0 1-1.15-3.64c-.2-1.22-.35-2.43-.51-3.63-.31-2.42-.67-4.82-1.12-7.2s-1-4.75-1.61-7.09l-.48-1.76a6 6 0 0 1-.22-1l-.08-.92c-.1-1.23-.16-2.45-.23-3.67-.22-4.88-.27-9.76 0-14.65a62.59 62.59 0 0 1 .76-7.33c.44-2.4.82-4.78 1.17-7.2.69-4.81 1.34-9.65 2.13-14.46s1.67-9.62 2.81-14.38a100.47 100.47 0 0 1 4.3-14 42.21 42.21 0 0 1 7.41-12.71 19 19 0 0 1 5.89-4.54 16.58 16.58 0 0 1 7.29-1.65l-.42.22a22.66 22.66 0 0 1 6.39-6.59 13.55 13.55 0 0 1 8.93-2.17 18.54 18.54 0 0 1 8.51 3.48 37 37 0 0 1 6.66 6.26l-.28-.16a3.67 3.67 0 0 1 2.08 1.55l1.36 1.88c.9 1.24 1.81 2.48 2.74 3.7 1.85 2.45 3.73 4.87 5.63 7.29q5.69 7.24 11.53 14.38l-.12-.09 3.34 1.85c1.06.69 2.14 1.38 3.18 2.11a37.09 37.09 0 0 1 5.66 5.11c1.7 1.9 3.15 4 4.77 5.9a15.65 15.65 0 0 0 5.86 4.47 24.54 24.54 0 0 0 3.54 1.19l1.85.36a16.38 16.38 0 0 0 1.86.3l7.53.79a119.62 119.62 0 0 1 14.9 2.81c4.91 1.21 9.73 2.79 14.68 3.7.62.12 1.24.22 1.87.28s1.24.15 1.87.17c1.27.12 2.48 0 3.79 0a1.93 1.93 0 0 1 1.7.94 2.67 2.67 0 0 1-.08 1.95 12.56 12.56 0 0 1-2 3.25 33.6 33.6 0 0 1-5.47 5.26 41.5 41.5 0 0 1-6.39 4.09 29.48 29.48 0 0 1-7.11 2.62 16.79 16.79 0 0 1-7.58.08zm0-.1a16.44 16.44 0 0 0 7.48-.07 29 29 0 0 0 7.06-2.63 40.69 40.69 0 0 0 6.34-4.11 34 34 0 0 0 5.41-5.24 12.14 12.14 0 0 0 1.93-3.19 2.4 2.4 0 0 0 .09-1.74 1.71 1.71 0 0 0-1.48-.78c-1.22 0-2.53.14-3.78 0a17.19 17.19 0 0 1-1.9-.17c-.63-.06-1.26-.15-1.88-.27-5-.89-9.82-2.45-14.72-3.64a121.12 121.12 0 0 0-14.87-2.73l-7.54-.75c-1.26-.12-2.5-.44-3.76-.65a24.49 24.49 0 0 1-3.63-1.2 16.09 16.09 0 0 1-6.09-4.58c-1.66-1.94-3.11-4-4.79-5.86a37.29 37.29 0 0 0-5.59-5c-1-.71-2.1-1.38-3.15-2l-3.3-1.81h-.07q-5.87-7.11-11.62-14.33-2.88-3.6-5.69-7.27c-.93-1.22-1.86-2.45-2.77-3.69l-1.35-1.85a2.9 2.9 0 0 0-1.49-1.19h-.17l-.12-.13a36.31 36.31 0 0 0-6.52-6.06 17.9 17.9 0 0 0-8-3.3 12.57 12.57 0 0 0-8.29 2 21.94 21.94 0 0 0-6.1 6.3l-.15.22h-.27a15.53 15.53 0 0 0-6.84 1.55 18.07 18.07 0 0 0-5.6 4.32 41.21 41.21 0 0 0-7.31 12.28 99.55 99.55 0 0 0-4.27 13.89c-1.13 4.73-2 9.51-2.8 14.31s-1.45 9.62-2.14 14.45c-.34 2.41-.74 4.84-1.18 7.23a61.57 61.57 0 0 0-.75 7.21c-.24 4.84-.19 9.71 0 14.56.06 1.21.12 2.43.22 3.63l.08.9a4.67 4.67 0 0 0 .18.81l.49 1.77c.62 2.37 1.18 4.75 1.62 7.16s.81 4.83 1.12 7.25c.16 1.21.32 2.41.5 3.6a9.68 9.68 0 0 0 1 3.29 2.75 2.75 0 0 0 1.22 1c.55.26 1.07.55 1.62.78a17.14 17.14 0 0 0 3.38 1.11 6.87 6.87 0 0 0 6.44-1.43 11.31 11.31 0 0 0 2.06-2.83c.6-1.12 1.46-2.05 2-3.05a5.08 5.08 0 0 0 .55-3.28 12.49 12.49 0 0 0-1-3.37c-.93-2.22-2.28-4.22-3.36-6.48a23.49 23.49 0 0 1-2-7.12c-.6-4.92.11-9.81.27-14.65 0-1.21.06-2.42 0-3.63s-.15-2.4-.15-3.66a22.71 22.71 0 0 1 1.25-7.27c1.56-4.66 3.87-9 5.52-13.54a39 39 0 0 0 2.72-14.17h.53c-.56 6-1.92 11.86-2.91 17.76a72.25 72.25 0 0 0-1.14 17.85c.21 3 .67 5.94 1.15 8.9s1 5.9 1.65 8.83q1.83 8.81 4.5 17.39v.13c-5.59 10.26-8.54 21.8-9.68 33.37a51.83 51.83 0 0 0-.12 8.72 36.63 36.63 0 0 0 1.58 8.55 35.35 35.35 0 0 0 3.64 7.87 42.21 42.21 0 0 0 2.48 3.58c.45.55.92 1.18 1.35 1.66s1.13 0 1.69-.35a20.17 20.17 0 0 0 3.26-2.82c1-1 2-2.12 3-3.21 1.92-2.19 3.77-4.45 5.6-6.72 3.68-4.54 7.27-9.15 11-13.63a81 81 0 0 1 6-6.49 18.19 18.19 0 0 1 1.7-1.44 3.84 3.84 0 0 1 2.22-.92 1.73 1.73 0 0 1 1.16.66 4.1 4.1 0 0 1 .62 1 12.49 12.49 0 0 1 .69 2.15 60.51 60.51 0 0 1 1.04 8.77l.56 8.74a70.41 70.41 0 0 0 1 8.65 10.05 10.05 0 0 0 .59 2 2.45 2.45 0 0 0 .5.76.48.48 0 0 0 .58.08c1.31-.6 2.65-1.23 4-1.86a30.61 30.61 0 0 0 3.77-2.1 9.69 9.69 0 0 0 3-2.94 14.87 14.87 0 0 0 1.71-3.88c.23-.68.42-1.38.6-2.09s.35-1.4.52-2.11c.67-2.83 1.27-5.7 1.91-8.55.32-1.43.62-2.85.89-4.27l.3-2.15.2-2.16a66.87 66.87 0 0 0-1.5-17.31c-.56-2.86-1.21-5.71-1.83-8.56s-1.43-5.66-2.18-8.48c-1.51-5.64-3.11-11.26-4.51-16.94a173.27 173.27 0 0 1-3.44-17.2 13.17 13.17 0 0 1 .18-4.43c.24-1.45.55-2.88.85-4.31s.61-2.85.85-4.29a14.42 14.42 0 0 0 .26-4.28v-.36l.3.14c4.69 2.28 8.9 5.32 13.58 7.42a8.34 8.34 0 0 0 1.71.48c.63.12 1.28.2 1.91.36l1.88.49c.62.17 1.22.42 1.84.62a37.06 37.06 0 0 1 6.87 3.58c2.18 1.38 4.3 2.85 6.54 4.12a63.58 63.58 0 0 0 6.89 3.49 98 98 0 0 0 14.62 4.83z" fill="#d2d2d2"/><g><path fill="#939393" d="M571.67004 323.14978l27.59615 30.76722-41.93364 37.61169-27.59615-30.76722z"/><rect x="562.05" y="333.8" width="46.67" height="9.67" rx="4.83" ry="4.83" transform="rotate(48.11 585.35868 338.6047)" fill="#cacaca"/><path fill="#fff" d="M569.2393 331.01125l21.94738 24.46935-34.44469 30.8946-21.94738-24.46935z"/><path fill="#cacaca" d="M571.76256 337.1994l6.08197-5.45514 13.60778 15.17144-6.08197 5.45514z"/><path d="M585.37 352.34c-2.28-2.39-4.61-4.81-6.94-7.31s-4.7-5-7-7.56l-.29-.33.33-.3 6-5.49.37-.34.34.38L585 339c2.26 2.54 4.45 5.14 6.68 7.7l.18.21-.2.17c-1 .91-2.12 1.79-3.17 2.67zm0 0l3-2.86c1-.94 1.93-1.89 2.91-2.79v.38c-2.31-2.49-4.66-4.95-6.93-7.47l-6.86-7.55h.71l-6.11 5.42v-.64c2.23 2.49 4.4 5 6.6 7.61z" fill="#9b9b9b"/><path d="M566.46 365.19a5.82 5.82 0 0 1-.86.93 7.21 7.21 0 0 1-6.57 1.64 4.28 4.28 0 0 1-.9 1.14 4.33 4.33 0 1 1-5.78-6.44 4 4 0 0 1 1.23-.77 7.26 7.26 0 0 1 2.34-6.36 6.08 6.08 0 0 1 1-.75 6 6 0 1 1 8.6.62v.05a5.68 5.68 0 0 1 .67.63 6.54 6.54 0 0 1 .56.74v-.05a6 6 0 1 1-.31 8.62z"/><path fill="none" stroke="#fff" stroke-miterlimit="10" d="M559.2 355.63l-.13 5.04M556.51 357.82l5.28.19M566.22 363.44l-5.03-.41M563.75 365.88l.38-5.26"/></g><g><path d="M559.9 316.23c-1.2 1.73-5.35 7.07-5.56 13.28s6 15.54 9.26 16 8.2-3.76 6.85-5.77-2.69-8.62-1.57-12.11 2.63-7.74 1.48-10-2.43-5-5.69-4a12.26 12.26 0 0 0-4.77 2.6z" fill="#dcdcdc"/><path d="M559.9 316.23a30.82 30.82 0 0 0-4.68 8.78 15.71 15.71 0 0 0-.72 4.89 15.24 15.24 0 0 0 1 4.8 25.55 25.55 0 0 0 5.17 8.32 9.84 9.84 0 0 0 1.82 1.55l.5.26a3.06 3.06 0 0 0 .49.15 3.12 3.12 0 0 0 1.1 0 8.14 8.14 0 0 0 4.1-2.16 5.17 5.17 0 0 0 1.34-1.8 1.27 1.27 0 0 0 .06-.89c0-.06 0-.12-.08-.19l-.18-.3a5.48 5.48 0 0 1-.29-.6 20.19 20.19 0 0 1-1.29-4.95 18.85 18.85 0 0 1-.06-5.09 12.2 12.2 0 0 1 .67-2.46c.27-.79.54-1.58.79-2.37a16.5 16.5 0 0 0 .91-4.84 4.75 4.75 0 0 0-.17-1.19 7.88 7.88 0 0 0-.49-1.13 11 11 0 0 0-1.27-2.12 3.54 3.54 0 0 0-2-1.35 4.48 4.48 0 0 0-2.42.28 12.71 12.71 0 0 0-4.3 2.41zm0 0a12.82 12.82 0 0 1 4.32-2.47 4.64 4.64 0 0 1 2.47-.32 3.7 3.7 0 0 1 2.09 1.36 12.74 12.74 0 0 1 1.36 2.12 7.64 7.64 0 0 1 .55 1.15 5.38 5.38 0 0 1 .23 1.26 16.81 16.81 0 0 1-.75 5c-.22.81-.46 1.61-.7 2.41a12 12 0 0 0-.56 2.37 22.26 22.26 0 0 0 1.51 9.57c.09.17.17.36.27.52l.14.24c.06.11.13.25.18.37a2.17 2.17 0 0 1 0 1.55 6 6 0 0 1-1.56 2.21 9.09 9.09 0 0 1-4.67 2.35 4.34 4.34 0 0 1-1.39 0 4.65 4.65 0 0 1-.69-.23l-.6-.33a10.48 10.48 0 0 1-2-1.71 22.54 22.54 0 0 1-2.94-4.14 25.73 25.73 0 0 1-2.08-4.6 15.58 15.58 0 0 1-.89-5 16.83 16.83 0 0 1 .89-4.93 31 31 0 0 1 4.82-8.75z" fill="#c4c4c4"/></g><path d="M581.65 210a32.78 32.78 0 0 1 .57 7.83 33.83 33.83 0 0 0 0 3.9 9.52 9.52 0 0 0 1 3.68 3.75 3.75 0 0 0 .51.78 3.48 3.48 0 0 0 .62.65 2.74 2.74 0 0 0 .72.5 6.45 6.45 0 0 0 .83.37l3.67 1.36c2.42 1 4.84 1.95 7.2 3.1v.1a63.37 63.37 0 0 1-7.55-2.2c-1.23-.45-2.44-1-3.64-1.49a5.82 5.82 0 0 1-.92-.48 3.25 3.25 0 0 1-.83-.69 3 3 0 0 1-.63-.84 4.44 4.44 0 0 1-.45-.93 19 19 0 0 1-.87-3.87c-.18-1.31-.38-2.61-.48-3.93-.12-2.63.08-5.21.16-7.83zM602.86 240.44a87.65 87.65 0 0 1 6.81 17 63.11 63.11 0 0 1 1.53 9.05c.15 1.52.25 3 .32 4.57s.1 3.05.2 4.55c.7 6 2.37 11.88 3.83 17.79.73 2.95 1.41 5.93 2 8.94a27.79 27.79 0 0 1 .5 9.14h-.09a19 19 0 0 0-.29-4.51c-.21-1.5-.55-3-.89-4.46-.68-3-1.49-5.88-2.24-8.83s-1.47-5.92-2.09-8.92a56.64 56.64 0 0 1-1.25-9.09v-2.31-2.27a38.19 38.19 0 0 0-.32-4.54 50.57 50.57 0 0 0-2-8.87c-1.7-5.81-4-11.46-6.1-17.17z" fill="#d2d2d2"/><g><path d="M617.68 234.69c8.1.77 3.71-5.23 5.9-8.23" fill="#fff"/><path d="M617.69 234.64a7.9 7.9 0 0 1 1.52-.28c.49-.09 1-.14 1.42-.22a2.69 2.69 0 0 0 .7-.11 1.35 1.35 0 0 0 .63-.32c.21-.13.29-.38.42-.57a2.92 2.92 0 0 0 .11-.72c0-1-.16-2-.15-3a3.89 3.89 0 0 1 1.2-3l.08.06a8.5 8.5 0 0 0-.21 2.92v1.54a4.65 4.65 0 0 1-.33 1.58 6.41 6.41 0 0 1-.35.75 6.57 6.57 0 0 1-.48.66 4.19 4.19 0 0 1-.61.58 2.28 2.28 0 0 1-.74.42 4.44 4.44 0 0 1-3.17-.2z" fill="#d2d2d2"/></g><path d="M596.83 242.47c-.23 2.15-1 4.19-1.39 6.24a15 15 0 0 0-.09 6.16 16 16 0 0 0 2.44 5.76c1.18 1.75 2.69 3.3 3.88 5.1a43.66 43.66 0 0 1 5.52 11.62 58.45 58.45 0 0 1 2.48 12.6h-.1c-1-4.16-2.06-8.27-3.39-12.29a60.5 60.5 0 0 0-5-11.65 21.37 21.37 0 0 0-1.76-2.65c-.62-.86-1.32-1.69-1.93-2.57a18.09 18.09 0 0 1-3-5.75 12.75 12.75 0 0 1 .15-6.52c.58-2.11 1.45-4 2-6.09z" fill="#d2d2d2"/><g><path d="M589.19 335.64a194.74 194.74 0 0 0 7.59-24.18c-8.5 1.5-10.5-5-15.18-6.5" fill="#fff"/><path d="M589.14 335.62c.56-2.05 1.2-4.06 1.84-6.07s1.31-4 2.09-6a47.51 47.51 0 0 0 1.93-6c.51-2.05.91-4.13 1.34-6.19l.52.54a13.76 13.76 0 0 1-4.44.14 10.1 10.1 0 0 1-4.14-1.71 33.69 33.69 0 0 1-3.28-2.85 12.71 12.71 0 0 0-3.41-2.47v-.1a10.39 10.39 0 0 1 3.82 2 41.11 41.11 0 0 0 3.4 2.54 10.4 10.4 0 0 0 3.79 1.55 12.81 12.81 0 0 0 4.1 0l.67-.08-.16.62c-.53 2.06-1.22 4.07-1.86 6.08s-1.18 4.06-1.69 6.12a47.44 47.44 0 0 1-1.9 6.07 62.49 62.49 0 0 1-2.52 5.83z" fill="#d2d2d2"/></g><g><path d="M581.6 317c1.68 1.5-3.41 6.42-2.26 7.7" fill="#fff"/><path d="M581.63 316.92a1.08 1.08 0 0 1 .69 1 2 2 0 0 1-.26 1.15c-.2.33-.5.58-.69.88a3.67 3.67 0 0 0-.43 1 9.63 9.63 0 0 1-.8 1.94l-.51.84c-.14.29-.33.52-.26.87l-.07.07a.83.83 0 0 1-.39-.52 2 2 0 0 1 0-.63 3.58 3.58 0 0 1 .32-1.11 6.47 6.47 0 0 1 1.28-1.74 2.82 2.82 0 0 0 .61-.86 5.48 5.48 0 0 0 .21-1c.06-.32.18-.61.26-.89a1.44 1.44 0 0 0 0-.9z" fill="#d2d2d2"/></g><path d="M618.15 244.43a3.34 3.34 0 0 1 .84 1.21 4.88 4.88 0 0 1 .31 1.46 8.42 8.42 0 0 1-.3 2.9c-.28.92-.67 1.78-1 2.67a24.68 24.68 0 0 0-.76 2.71c-.21.92-.43 1.83-.69 2.73l-.7 2.69a32.69 32.69 0 0 0-1.12 5.43h-.1a12.61 12.61 0 0 1 .18-5.7 32.81 32.81 0 0 1 1.91-5.33 17.77 17.77 0 0 0 1-2.64 23.65 23.65 0 0 0 .49-2.75c.26-1.8.71-3.61-.11-5.31z" fill="#d2d2d2"/><g><path d="M630.68 317c-1.4 4.5 1.4 13.5 1 15.5" fill="#fff"/><path d="M630.73 317v3.84a18.06 18.06 0 0 0-.12 1.95 8.43 8.43 0 0 0 .35 1.92 32.88 32.88 0 0 1 .88 3.81 18.07 18.07 0 0 1 .16 2 5.5 5.5 0 0 1-.25 2h-.1c-.2-1.27-.64-2.5-.86-3.78-.13-.64-.19-1.29-.27-1.94a14.37 14.37 0 0 1-.1-2 12.82 12.82 0 0 0-.13-2c-.11-.65-.29-1.29-.39-1.95a6.41 6.41 0 0 1 .75-3.9z" fill="#d2d2d2"/></g><g><path d="M588.4 182.59c-9.25-4.75-3-7.33-10.12-9.13-2.17-.55-7.67-3.65-9.65-4.41-6.35-2.42-6.87-6.42 1-3.92 10.54 3.33 25.54 11.33 20.87 3.66s-14.37-16.16-12.69-21.41-.64.29 7.69 3.52 11.67 17.56 13 1.56 8.18-21.67 10.59-20.33-6.68 8.64-4.63 14.32 2.71 10.37 5 9.52.3 1.51 3.81-7.67 5.52-10.84 5.19-14.17-5.33-10.67-2-10.34 4.33.34 6 7.34 1.67 15.2 1.67 19.77 1.61-8.51 6.47-13 7.19-12.47 11.86-12.14 1.67.67-1.33 7.34-8.34 15.43-8.34 22.21-9 8.11 1.67 4.45 8 4 12.67-6.66 10.33-10.69 8.33-6.68 2.67 15.34-5.33 18-18 3-12.67 5 1.33 2.67 11.33 2.33 20-3.66 15.67-.66-3.83 6.08-15.5 6.08-7.34.41-10.17.92-9-2.34 0 7.66c2 2.28 9.26 2.09 11.17 3.68 1.34 1.12 5.46-.69 6 0 2.09 2.68-4.57 5.1-10.5 3.24-9.67-3-8-2.25-18-5.25s-7.15-15-18.41-9.67-18.68 5.85-20.65 4.84z" fill="#fff"/><path d="M588.4 182.59a20.33 20.33 0 0 1-3.65-2.36c-.28-.24-.52-.51-.78-.76a7 7 0 0 1-1.54-2.86 3.63 3.63 0 0 0-1.11-1.82 5 5 0 0 0-.91-.58c-.34-.14-.67-.28-1-.4-.69-.22-1.41-.38-2.08-.65s-1.34-.56-2-.86c-2.64-1.22-5.17-2.67-7.88-3.72a11.44 11.44 0 0 1-1.9-1.07A5.26 5.26 0 0 1 564 166a1.1 1.1 0 0 1-.12-1.08 1.37 1.37 0 0 1 .94-.55 6.65 6.65 0 0 1 2.18.06 25.36 25.36 0 0 1 4.2 1.16c1.38.46 2.74 1 4.1 1.48 2.72 1 5.41 2.12 8.14 3.12 1.36.5 2.73 1 4.13 1.35a11.91 11.91 0 0 0 2.13.39 2.86 2.86 0 0 0 1.05-.09.76.76 0 0 0 .58-.72 3.91 3.91 0 0 0-.69-2c-.35-.63-.76-1.23-1.16-1.83-.82-1.2-1.69-2.36-2.58-3.51-1.78-2.29-3.65-4.51-5.38-6.85a35.36 35.36 0 0 1-2.42-3.64 10.86 10.86 0 0 1-1.51-4.1 4.81 4.81 0 0 1 .27-2.19l.32-1c.06-.17.12-.35.19-.52a.86.86 0 0 1 .15-.28.22.22 0 0 1 .26-.06.45.45 0 0 1 .14.13 10.79 10.79 0 0 0 2.73 3.33 14.69 14.69 0 0 0 3.74 2.12 13.39 13.39 0 0 1 3.76 2.24 28.19 28.19 0 0 1 3.11 3.07 37.21 37.21 0 0 0 3 3.17 2.65 2.65 0 0 0 .87.53.74.74 0 0 0 .82-.27 4.85 4.85 0 0 0 .79-1.92 32.34 32.34 0 0 0 .61-4.29c.47-5.76 1.52-11.67 4.49-16.77a14 14 0 0 1 2.78-3.41 5.75 5.75 0 0 1 1.92-1.15 2.66 2.66 0 0 1 1.16-.12 1.18 1.18 0 0 1 1 .7 1.8 1.8 0 0 1-.11 1.2 8.42 8.42 0 0 1-.49 1c-.36.65-.76 1.26-1.15 1.87a41.42 41.42 0 0 0-2.23 3.71 10.76 10.76 0 0 0-1.27 4.05 5.12 5.12 0 0 0 .28 2.06c.24.68.48 1.37.71 2.07.45 1.38.86 2.77 1.34 4.14a14.85 14.85 0 0 0 .82 2c.33.59.75 1.26 1.36 1.28a2.4 2.4 0 0 0 1-.21c.19-.05.38-.08.56-.11s.18 0 .25-.15c.22-.61.41-1.37.63-2 .43-1.4.92-2.77 1.43-4.13q1.51-4.09 3.37-8.06c.6-1.32 1.26-2.62 1.74-4A6.37 6.37 0 0 0 618 133a41.5 41.5 0 0 0-1.58-4c-.29-.67-.57-1.34-.82-2a7.22 7.22 0 0 1-.52-2.21 1.65 1.65 0 0 1 .12-.64 1 1 0 0 1 .52-.52 2.59 2.59 0 0 1 1.22-.06 9.25 9.25 0 0 1 2.21.42 3.66 3.66 0 0 1 1.74 1.53 10.35 10.35 0 0 1 .91 2 47.37 47.37 0 0 1 1.91 8.55c.39 2.89.59 5.8.69 8.71.05 1.46.08 2.91.08 4.37v2.41a.78.78 0 0 0 0 .09c0 .14 0-.24-.42-.11-.09.09 0 0 0 0v-.1l.08-.24.31-1a51.28 51.28 0 0 1 2.93-8.25 16.07 16.07 0 0 1 2.41-3.73c.53-.57 1.05-1 1.53-1.55s.94-1.08 1.38-1.65c1.76-2.28 3.15-4.84 5.07-7.11a6.66 6.66 0 0 1 3.79-2.46 10.65 10.65 0 0 1 2.28.1c.19 0 .38.06.58.11a1.21 1.21 0 0 1 .67.41.9.9 0 0 1 0 .87 4.51 4.51 0 0 1-.29.54c-.82 1.24-1.64 2.39-2.33 3.66s-1.25 2.57-1.89 3.89c-1.27 2.63-2.6 5.21-3.82 7.83a47.88 47.88 0 0 0-3.06 8.08 17.86 17.86 0 0 0-.62 4.22 7.88 7.88 0 0 1-1.23 4.31 9.24 9.24 0 0 1-1.46 1.72 8.41 8.41 0 0 1-.86.72l-.1.08c.07.12-.58-1-.29-.54l.24-.11.5-.21c1.35-.57 2.72-1.06 4.1-1.54.69-.24 1.41-.43 2.11-.65a19.82 19.82 0 0 1 2.17-.43 12.14 12.14 0 0 1 4.42.21 2.81 2.81 0 0 0 .49.05h.22l.2-.07a1.63 1.63 0 0 0 .67-.6 12.21 12.21 0 0 0 1.05-1.84c.63-1.3 1.2-2.63 1.8-4a22.15 22.15 0 0 1 5-7.23 6.45 6.45 0 0 1 1.92-1.21 2.06 2.06 0 0 1 1.24-.1 1.08 1.08 0 0 1 .59.38 1.27 1.27 0 0 1 .24.64 4.65 4.65 0 0 1-.6 2.2 7.72 7.72 0 0 0-.33 2.06c-.12 2.86.32 5.79 0 8.73a9.46 9.46 0 0 1-1.36 4.22 6.65 6.65 0 0 1-3.54 2.67 76 76 0 0 1-8.47 2.13c-1.42.3-2.85.57-4.23 1a7.22 7.22 0 0 0-1 .36 1.6 1.6 0 0 0-.36.25c-.07.09-.06.08 0 .2a6.39 6.39 0 0 0 1.85.91 11.81 11.81 0 0 1 2 1 5.92 5.92 0 0 0 1.85 1 22.57 22.57 0 0 0 4.29.2 71.85 71.85 0 0 0 8.67-.57c2.88-.34 5.72-.88 8.62-1.28.36 0 .72-.08 1.1-.09a2.3 2.3 0 0 1 .58 0 .7.7 0 0 1 .34.12.36.36 0 0 1 .09.46 2.82 2.82 0 0 1-.85.81l-.87.64c-1.15.87-2.11 2-3.25 2.89a9.94 9.94 0 0 1-3.94 2 22.77 22.77 0 0 1-4.33.65c-2.91.18-5.82.07-8.72.15-.72 0-1.45 0-2.17.1a5.79 5.79 0 0 0-1 .15 1.6 1.6 0 0 0-.45.23 2.24 2.24 0 0 1-.53.23c-1.47.47-3 0-4.36.17a1 1 0 0 0-.8.43 1.39 1.39 0 0 0 .08.95 9.8 9.8 0 0 0 1.06 1.86 41.88 41.88 0 0 0 2.72 3.38 5.94 5.94 0 0 0 1.56 1.45 9.08 9.08 0 0 0 2 .79c1.38.4 2.82.63 4.25.91.71.14 1.42.28 2.13.48a5.6 5.6 0 0 1 2 .9 3.25 3.25 0 0 0 2 .24c.72-.07 1.42-.22 2.14-.35a6.61 6.61 0 0 1 1.1-.12.83.83 0 0 1 .59.16 1.68 1.68 0 0 1 .32.48 1.46 1.46 0 0 1 0 1.14 2.34 2.34 0 0 1-.68.9 8.23 8.23 0 0 1-4.11 1.46 14.49 14.49 0 0 1-4.36-.13 39.52 39.52 0 0 1-4.2-1.18c-2.77-.87-5.57-1.66-8.37-2.42l-4.19-1.2c-1.39-.44-2.8-.78-4.16-1.32a11.44 11.44 0 0 1-3.64-2.37 20.31 20.31 0 0 1-2.74-3.4 19.72 19.72 0 0 0-2.62-3.45 5 5 0 0 0-1.82-1.14 5.49 5.49 0 0 0-2.13-.23 12.8 12.8 0 0 0-4.14 1.25c-1.32.61-2.65 1.21-4 1.75a54.84 54.84 0 0 1-8.28 2.7 31.4 31.4 0 0 1-4.3.73 15.73 15.73 0 0 1-2.17.06 5.76 5.76 0 0 1-1.97-.45zm0 0a5.56 5.56 0 0 0 2.13.4 15.73 15.73 0 0 0 2.17-.06 32.59 32.59 0 0 0 4.29-.74 55.57 55.57 0 0 0 8.27-2.72c1.34-.55 2.66-1.15 4-1.76a12.71 12.71 0 0 1 4.16-1.27 5.43 5.43 0 0 1 2.16.23 5.14 5.14 0 0 1 1.86 1.15 20.29 20.29 0 0 1 2.64 3.46 19.73 19.73 0 0 0 2.73 3.37 11.28 11.28 0 0 0 3.59 2.35c1.35.53 2.77.87 4.16 1.3l4.19 1.19c2.8.75 5.6 1.54 8.38 2.4a38.76 38.76 0 0 0 4.18 1.17 14.83 14.83 0 0 0 4.31.12 8.1 8.1 0 0 0 4-1.44 1.48 1.48 0 0 0 .57-1.79 1.6 1.6 0 0 0-.27-.42.7.7 0 0 0-.45-.1 6.37 6.37 0 0 0-1.06.12c-.71.13-1.43.28-2.16.36a3.35 3.35 0 0 1-2.19-.28 5.47 5.47 0 0 0-1.94-.86c-.7-.2-1.41-.33-2.12-.47-1.42-.28-2.86-.5-4.27-.9a9 9 0 0 1-2.05-.81l-.47-.3-.42-.38-.73-.82a41.23 41.23 0 0 1-2.75-3.4 9.45 9.45 0 0 1-1.09-1.91 1.61 1.61 0 0 1-.08-1.17 1.21 1.21 0 0 1 1-.59c1.49-.17 3 .28 4.31-.17a2 2 0 0 0 .47-.2 1.53 1.53 0 0 1 .51-.26 5.43 5.43 0 0 1 1.11-.17c.73-.06 1.46-.08 2.18-.1 2.91-.09 5.82 0 8.71-.18s5.86-.67 8.06-2.55c1.11-.9 2.08-2 3.26-2.91l.88-.65a2.6 2.6 0 0 0 .72-.66c0-.07 0 0 0 0a.59.59 0 0 0-.17 0 2.86 2.86 0 0 0-.51 0 9.9 9.9 0 0 0-1.07.1c-2.86.4-5.73.94-8.61 1.3a74.83 74.83 0 0 1-8.72.59 22.41 22.41 0 0 1-4.39-.2 6 6 0 0 1-2-1 13.18 13.18 0 0 0-1.92-1 6.15 6.15 0 0 1-2-1 .65.65 0 0 1-.18-.35.93.93 0 0 1 0-.24 1.62 1.62 0 0 1 .1-.18 1.52 1.52 0 0 1 .52-.37 6.21 6.21 0 0 1 1.06-.4c1.41-.4 2.84-.67 4.26-1a74.5 74.5 0 0 0 8.41-2.14 6.18 6.18 0 0 0 3.28-2.48 9 9 0 0 0 1.27-4c.32-2.86-.12-5.75 0-8.69a7.75 7.75 0 0 1 .36-2.22c.13-.38.31-.7.42-1a2.1 2.1 0 0 0 .14-.94c0-.62-.7-.71-1.33-.46a5.74 5.74 0 0 0-1.74 1.1 21.52 21.52 0 0 0-4.8 7.06c-.6 1.31-1.17 2.66-1.8 4a14 14 0 0 1-1.1 1.95 2.32 2.32 0 0 1-.94.8l-.33.1h-.31a2.74 2.74 0 0 1-.59-.06 14.49 14.49 0 0 0-8.39.87c-1.37.48-2.73 1-4.06 1.53l-.49.22-.26.11c.19.53-.56-.61-.35-.57l.11-.09a8.73 8.73 0 0 0 .81-.67 8.25 8.25 0 0 0 1.34-1.61 7 7 0 0 0 1.12-4 18.45 18.45 0 0 1 .63-4.38 48.44 48.44 0 0 1 3.08-8.2c1.22-2.65 2.55-5.24 3.8-7.85.62-1.3 1.18-2.65 1.9-3.94s1.56-2.52 2.35-3.7a2.53 2.53 0 0 0 .23-.42c.06-.14 0-.2.05-.17a2 2 0 0 0-.75-.21 9.7 9.7 0 0 0-2.06-.1 6 6 0 0 0-3.35 2.21c-1.85 2.16-3.27 4.74-5.07 7-.45.59-.92 1.15-1.42 1.7s-1.07 1-1.53 1.54a15.12 15.12 0 0 0-2.31 3.56 50 50 0 0 0-2.91 8.15c-.1.35-.2.69-.32 1l-.1.27-.07.15a.44.44 0 0 1-.18.24.39.39 0 0 1-.58-.26v-.18V149.15c0-1.45 0-2.9-.07-4.35a86.36 86.36 0 0 0-.66-8.65 47.43 47.43 0 0 0-1.86-8.44c-.46-1.32-1-2.75-2.31-3.23a8.45 8.45 0 0 0-2.06-.39 2 2 0 0 0-.93 0c-.22.07-.3.32-.31.64a6.59 6.59 0 0 0 .48 2c.24.67.52 1.34.8 2a39.38 39.38 0 0 1 1.59 4.09 6.86 6.86 0 0 1-.18 4.43c-.5 1.4-1.16 2.69-1.77 4-1.23 2.62-2.36 5.29-3.37 8-.51 1.36-1 2.72-1.44 4.1-.23.7-.37 1.36-.65 2.11a.67.67 0 0 1-.27.32 1 1 0 0 1-.33.09 3.82 3.82 0 0 0-.51.11c-.18 0-.31.1-.52.15a1.43 1.43 0 0 1-.62.06 1.48 1.48 0 0 1-.62-.18 3.5 3.5 0 0 1-.46-.39 4.58 4.58 0 0 1-.65-1 14.36 14.36 0 0 1-.84-2c-.48-1.39-.89-2.78-1.34-4.16-.22-.69-.46-1.37-.7-2.05a5.7 5.7 0 0 1-.29-2.24 11.26 11.26 0 0 1 1.32-4.21 42.85 42.85 0 0 1 2.26-3.75c.4-.6.8-1.21 1.15-1.83a7.53 7.53 0 0 0 .46-.95 1.47 1.47 0 0 0 .12-.92.81.81 0 0 0-.71-.45 2.08 2.08 0 0 0-1 .11 5.27 5.27 0 0 0-1.79 1.06 13.6 13.6 0 0 0-2.71 3.32 29.35 29.35 0 0 0-3.16 8 54.93 54.93 0 0 0-1.32 8.57 31.85 31.85 0 0 1-.64 4.33 4.8 4.8 0 0 1-.87 2.06 1.07 1.07 0 0 1-1.1.49 3.33 3.33 0 0 1-1-.59 37.26 37.26 0 0 1-3-3.21 28.7 28.7 0 0 0-3.08-3.06 13 13 0 0 0-3.68-2.2 15.08 15.08 0 0 1-3.8-2.17 10.93 10.93 0 0 1-2.76-3.38.2.2 0 0 0-.05 0 .62.62 0 0 0-.11.2q-.09.24-.18.51l-.33 1a4.71 4.71 0 0 0-.26 2.1 10.79 10.79 0 0 0 1.47 4 35.88 35.88 0 0 0 2.4 3.61c1.72 2.34 3.58 4.57 5.36 6.87.89 1.15 1.76 2.32 2.57 3.52.41.61.81 1.21 1.17 1.85a4 4 0 0 1 .7 2.08.94.94 0 0 1-.69.86 3.23 3.23 0 0 1-1.11.09 13.05 13.05 0 0 1-2.16-.4c-1.4-.38-2.77-.87-4.14-1.37-2.73-1-5.42-2.1-8.13-3.14-1.36-.52-2.72-1-4.09-1.49a25.44 25.44 0 0 0-4.18-1.17 6.48 6.48 0 0 0-2.15-.06 1.25 1.25 0 0 0-.89.51 1 1 0 0 0 .12 1 5.21 5.21 0 0 0 1.53 1.5 13 13 0 0 0 1.89 1.07c2.71 1 5.24 2.51 7.87 3.73.65.31 1.31.61 2 .88s1.38.43 2.08.64l1 .41a5 5 0 0 1 .92.59 3.62 3.62 0 0 1 1.11 1.84 8.34 8.34 0 0 0 .87 2 9.46 9.46 0 0 0 .66.87c.26.25.5.52.78.76a20 20 0 0 0 3.69 2.34z" fill="#dbdbdb"/><path d="M630.17 193c-.18 2 .4.42.06 2.47-1.89 11.34-3.53 14.4-10.22 19.85 0 .27.06.53.09.81.76 8.23-3.81 15.37-10.2 16s-12.2-5.6-13-13.84c0-.53-.07-2.89-.08-3.41-7.45-5.76-9.69-8.76-5.88-19.83-1.66.3-3.23.4-3.67-.54-.85-1.83-.23-7.16.17-9.69.79-5.07 4.2-8.74 7.61-8.2a4.94 4.94 0 0 1 3.28 2.22c5.43-8.55 11.21-10.13 21.24-10.22 10.69-.1 13.34 7.33 12.64 14-.13 1.62-1.9 8.76-2.04 10.38z" fill="#dcdcdc"/><path d="M630.17 193a7.13 7.13 0 0 0 0 .8c0 .28.25.47.2.76a12 12 0 0 1-.22 1.58c-.17 1-.37 2.1-.57 3.15a40.24 40.24 0 0 1-1.65 6.18 17.91 17.91 0 0 1-3.2 5.51 35.82 35.82 0 0 1-4.64 4.41v-.08a17.9 17.9 0 0 1-2 11.25 12 12 0 0 1-3.94 4.27 9.6 9.6 0 0 1-5.61 1.56 10.82 10.82 0 0 1-5.53-1.94 14.5 14.5 0 0 1-4-4.33 17.84 17.84 0 0 1-2.18-5.44 10.28 10.28 0 0 1-.27-1.45 9.13 9.13 0 0 1-.14-1.46l-.08-2.91.17.34a44.93 44.93 0 0 1-4.42-3.77 11.29 11.29 0 0 1-3.12-5 13.12 13.12 0 0 1-.08-5.91 39.55 39.55 0 0 1 1.55-5.62l.55.64a11.42 11.42 0 0 1-2 .21 4 4 0 0 1-1.06-.12 1.77 1.77 0 0 1-1-.68 4.84 4.84 0 0 1-.53-2 17.86 17.86 0 0 1-.06-1.93c0-1.28.14-2.54.28-3.79a30.89 30.89 0 0 1 .63-3.77 12.42 12.42 0 0 1 1.52-3.58 8.49 8.49 0 0 1 2.73-2.8 5.13 5.13 0 0 1 3.9-.72 5.5 5.5 0 0 1 3.18 2.33h-.59a25.82 25.82 0 0 1 4.68-5.54 16.92 16.92 0 0 1 6.35-3.46 37.05 37.05 0 0 1 14.32-.8 11.13 11.13 0 0 1 6.22 3.44 10.37 10.37 0 0 1 1.84 3.08 14.63 14.63 0 0 1 .83 3.5 19.68 19.68 0 0 1 0 3.6c-.14 1.19-.44 2.36-.68 3.53-.43 2.31-1.03 4.63-1.38 6.96zm0 0c.33-2.37.92-4.7 1.4-7 .24-1.17.53-2.34.66-3.53a19.46 19.46 0 0 0 0-3.58 14.2 14.2 0 0 0-.83-3.46 10.47 10.47 0 0 0-1.84-3 10.79 10.79 0 0 0-6.16-3.31 37.22 37.22 0 0 0-14.15 1 16.31 16.31 0 0 0-6.1 3.46 24.66 24.66 0 0 0-4.47 5.48l-.28.44-.3-.43a4.72 4.72 0 0 0-2.77-2 4.37 4.37 0 0 0-3.3.67 9.87 9.87 0 0 0-3.83 5.9 28.79 28.79 0 0 0-.57 3.66c-.14 1.23-.24 2.47-.26 3.71a15.65 15.65 0 0 0 .07 1.82 4.49 4.49 0 0 0 .37 1.59 1.7 1.7 0 0 0 1.32.38 11.19 11.19 0 0 0 1.78-.21l.81-.15-.26.79a46.72 46.72 0 0 0-1.5 5.47 12.11 12.11 0 0 0 0 5.49 10.38 10.38 0 0 0 2.85 4.65 43 43 0 0 0 4.31 3.72l.16.12v.21l.05 2.86a9.24 9.24 0 0 0 .13 1.41 10.92 10.92 0 0 0 .24 1.39 17.08 17.08 0 0 0 2 5.25 13.72 13.72 0 0 0 3.71 4.17 10.16 10.16 0 0 0 5.18 1.93 9.2 9.2 0 0 0 5.34-1.4 11.7 11.7 0 0 0 3.87-4.07 17.72 17.72 0 0 0 2.1-11v-.05a34.9 34.9 0 0 0 4.66-4.35 17.81 17.81 0 0 0 3.22-5.46 39.79 39.79 0 0 0 1.68-6.16c.21-1 .41-2.09.59-3.14a12.28 12.28 0 0 0 .23-1.58c0-.28-.23-.47-.2-.76a7.14 7.14 0 0 1 .09-.93z" fill="#c4c4c4"/><g data-name="eye-rt"><circle cx="610.97" cy="190.2" r="4.57" fill="#fff"/><path d="M609.72 194.63a5.21 5.21 0 0 1-2.94-2.08 4.26 4.26 0 0 1-.51-3.67 4.93 4.93 0 0 1 2.41-2.77 5.18 5.18 0 0 1 3.59-.5 4.65 4.65 0 0 1 3 2.19 4.82 4.82 0 0 1 .48 3.75 4.47 4.47 0 0 1-2.43 2.85 5.16 5.16 0 0 1-3.6.23zm0-.07a4 4 0 0 0 3.34-.59 4.74 4.74 0 0 0 1.9-2.64 4.37 4.37 0 0 0-.33-3.19 4.57 4.57 0 0 0-2.49-2.14 4.05 4.05 0 0 0-3.36.32 4.29 4.29 0 0 0-1.93 2.73 5.2 5.2 0 0 0 .32 3.27 4 4 0 0 0 2.57 2.24z" fill="#959595"/></g><g data-name="eye-lt"><circle cx="624.25" cy="193.62" r="4.19" fill="#fff"/><path d="M623.1 197.69a4.85 4.85 0 0 1-2.71-1.91 3.85 3.85 0 0 1-.47-3.38 4.53 4.53 0 0 1 2.22-2.54 4.83 4.83 0 0 1 3.3-.47 4.28 4.28 0 0 1 2.77 2 4.39 4.39 0 0 1 .45 3.47 4.11 4.11 0 0 1-2.24 2.62 4.83 4.83 0 0 1-3.32.21zm0-.07a3.67 3.67 0 0 0 3-.56 4.32 4.32 0 0 0 1.72-2.41 4 4 0 0 0-.29-2.9 4.18 4.18 0 0 0-2.27-2 3.65 3.65 0 0 0-3.07.28 3.86 3.86 0 0 0-1.74 2.5 4.78 4.78 0 0 0 .28 3 3.68 3.68 0 0 0 2.39 2.09z" fill="#959595"/></g><circle data-name="pupil-rt" cx="612.38" cy="191.44" r="2.53" fill="#636363"/><circle data-name="pupil-lt" cx="625.36" cy="195.21" r="2.32" fill="#636363"/><path d="M617.56 185.72c-3-4-.93-4.91-4.18-4.59s-5.39-1.52-6.12-.7-2.09 3.23-1.88 3.25a15.28 15.28 0 0 1 5.79 0c3.53.62 3.78 2.42 4 2.66a3.52 3.52 0 0 0 2.23 1.11c1.23.11.16-1.73.16-1.73z" fill="#fff"/><path d="M617.54 185.73a13.26 13.26 0 0 1-2-3.56 1.79 1.79 0 0 0-.46-.76 1.71 1.71 0 0 0-.88-.12 15.26 15.26 0 0 1-2.05.07 10 10 0 0 1-2-.41c-.66-.2-1.29-.47-1.94-.61-.32-.06-.68-.09-.88.15a7.71 7.71 0 0 0-.59.82 15.29 15.29 0 0 0-1 1.77 4.47 4.47 0 0 0-.19.46.37.37 0 0 0 0 .09s-.08 0-.08-.07h.23c.33-.08.67-.14 1-.19a12 12 0 0 1 2.07-.13 12.51 12.51 0 0 1 4.09.66 4.47 4.47 0 0 1 1.79 1.16 3.33 3.33 0 0 1 .57.93l.1.23a.77.77 0 0 0 .11.15 2.2 2.2 0 0 0 .35.33 3.46 3.46 0 0 0 1.8.73.36.36 0 0 0 .36-.21.83.83 0 0 0 0-.47 3.38 3.38 0 0 0-.4-1.02zm0 0a3.94 3.94 0 0 1 .41.94 1 1 0 0 1 0 .53.5.5 0 0 1-.45.3 3.65 3.65 0 0 1-2-.59 4.46 4.46 0 0 1-.43-.33.76.76 0 0 1-.2-.25l-.11-.23a3.07 3.07 0 0 0-.55-.77 4.53 4.53 0 0 0-1.62-1 9.69 9.69 0 0 0-1.93-.46 16.05 16.05 0 0 0-4-.17c-.34 0-.67.07-1 .13h-.27c-.05 0 0 .06-.2-.09a.22.22 0 0 1 0-.16 1.31 1.31 0 0 1 0-.15 3 3 0 0 1 .22-.48c.33-.61.7-1.18 1.08-1.75a8 8 0 0 1 .62-.82 1.11 1.11 0 0 1 1-.22 17.43 17.43 0 0 0 4 .77c.67.05 1.31-.08 2-.08a2 2 0 0 1 1.1.23 1.71 1.71 0 0 1 .53 1 10.4 10.4 0 0 0 1.84 3.63z" fill="#dbdbdb"/><path d="M621.17 187c3.19-2.76 1.68-3.91 4.31-3s4.75-.28 5.21.53a9.07 9.07 0 0 1 1 3 12.58 12.58 0 0 0-4.79-1.09c-3-.13-3.59 1.32-3.78 1.48a3 3 0 0 1-2.05.51c-1.07-.16.1-1.43.1-1.43z" fill="#fff"/><path d="M621.16 186.93a8.61 8.61 0 0 0 2.09-2.71 1.52 1.52 0 0 1 .64-.73 1.77 1.77 0 0 1 1 0c.6.14 1.1.36 1.66.44a15 15 0 0 0 3.45.07.93.93 0 0 1 .82.37 8.25 8.25 0 0 1 .37.8c.21.54.42 1.08.58 1.64a3.48 3.48 0 0 1 .1.44.57.57 0 0 1 0 .14.26.26 0 0 1-.05.15c-.2.11-.16 0-.21 0l-.22-.08c-.27-.11-.54-.2-.81-.29a13.19 13.19 0 0 0-1.65-.39 12.34 12.34 0 0 0-3.37-.15 3.93 3.93 0 0 0-1.51.52 2.33 2.33 0 0 0-.59.54l-.14.17a.62.62 0 0 1-.22.17 2.6 2.6 0 0 1-.42.19 3.1 3.1 0 0 1-1.78.12.42.42 0 0 1-.32-.34.82.82 0 0 1 .1-.44 3.09 3.09 0 0 1 .48-.63zm0 0a3.64 3.64 0 0 0-.47.71c-.14.25-.12.59.18.62a2.88 2.88 0 0 0 1.61-.29 2.5 2.5 0 0 0 .35-.21.58.58 0 0 0 .11-.1l.12-.18a2.75 2.75 0 0 1 .65-.67 3.88 3.88 0 0 1 1.71-.64 10.45 10.45 0 0 1 3.53.2 10.18 10.18 0 0 1 1.69.49 8.24 8.24 0 0 1 .81.35l.18.08h-.11c-.17 0 0 0 0 0a.11.11 0 0 0 0-.08 3.2 3.2 0 0 0-.07-.41 11 11 0 0 0-.48-1.65 6.81 6.81 0 0 0-.34-.78c-.12-.24-.42-.27-.69-.28a17.56 17.56 0 0 1-3.49.13 11.93 11.93 0 0 1-1.69-.42 1.37 1.37 0 0 0-.73-.07 1.45 1.45 0 0 0-.51.53 11.47 11.47 0 0 1-2.33 2.74z" fill="#dbdbdb"/><g data-name="nose"><path d="M620.67 197.8a22.13 22.13 0 0 1 2.13 3.13c.3.55.6 1.1.93 1.62a7.64 7.64 0 0 0 .5.72l.14.16a1.5 1.5 0 0 1 .18.24 1.52 1.52 0 0 1 .22.51 3 3 0 0 1-.18 2 2.16 2.16 0 0 1-1.52 1.23 3.89 3.89 0 0 1-1.92-.15 8.84 8.84 0 0 1-1.77-.74 13.59 13.59 0 0 1-2.93-2.43 3.68 3.68 0 0 0-3-1.44 6.12 6.12 0 0 0-.86.14 1.18 1.18 0 0 1-1.23-.38 2.8 2.8 0 0 1-.24-2.09 4.41 4.41 0 0 1 .8-1.81 1.65 1.65 0 0 1 1.73-.73v.07a1.52 1.52 0 0 0-1.41.88 4.35 4.35 0 0 0-.53 1.68A2.32 2.32 0 0 0 612 202a.47.47 0 0 0 .47.09 5.59 5.59 0 0 1 1-.2 3.15 3.15 0 0 1 2 .45 7.54 7.54 0 0 1 1.5 1.29 19 19 0 0 0 2.65 2.58 6.14 6.14 0 0 0 1.63.84 3.2 3.2 0 0 0 1.78.17 2.09 2.09 0 0 0 1.17-2.82 1.35 1.35 0 0 0-.2-.4l-.11-.14-.18-.19a5 5 0 0 1-.56-.82c-.32-.56-.59-1.12-.87-1.68-.54-1.13-1.1-2.24-1.68-3.36z" fill="#959595"/></g><g data-name="mouth"><path d="M602.85 207.34a5.92 5.92 0 0 1 1.78 2.88c.29 1.15.14 2.3.45 3.24a5.2 5.2 0 0 0 2 2.42l2.62 2.06a6.08 6.08 0 0 0 1.35.83 1.91 1.91 0 0 0 1.39 0 13.4 13.4 0 0 0 2.7-1.71c1.78-1.3 3.49-2.69 5.25-4.06l.05.05a31.19 31.19 0 0 1-4.82 4.65 11.1 11.1 0 0 1-3 1.74 2.43 2.43 0 0 1-1.85-.09 5.42 5.42 0 0 1-1.37-1.07 21.45 21.45 0 0 0-2.5-2.18 6 6 0 0 1-2.44-2.39c-.49-1.17-.2-2.32-.44-3.34a7.61 7.61 0 0 0-1.27-3z" fill="#959595"/></g><g><path d="M593 180.16a1 1 0 0 1 1.26.17 2.84 2.84 0 0 1 .26.65 2.26 2.26 0 0 0 .36.53 1.75 1.75 0 0 1 .34 1.22 1.9 1.9 0 0 1-.6 1.09h-.1a2.13 2.13 0 0 1-.36-1.15 4 4 0 0 1 .19-1 .54.54 0 0 0-.1-.5c-.12-.13-.35-.13-.5-.17a1.67 1.67 0 0 1-.77-.73z" fill="#c2c2c2"/></g><g><path d="M592.82 187a1.08 1.08 0 0 1-.21 1.16 5.13 5.13 0 0 0-.52.32.87.87 0 0 0-.24.51 2.1 2.1 0 0 1-.51 1 1.8 1.8 0 0 1-1.12.47l-.07-.07a2.18 2.18 0 0 1 .39-1.11 2.47 2.47 0 0 1 .88-.65.79.79 0 0 0 .4-.36 3.52 3.52 0 0 0 .09-.58 1.24 1.24 0 0 1 .82-.75z" fill="#c2c2c2"/></g></g><g data-name="table"><g data-name="lt-bk-leg"><path data-name="lt-bk-leg-front" fill="#bcbcbc" stroke="#999" stroke-miterlimit="10" d="M654.28 366.84h11.48v119.2h-11.48z"/><path data-name="lt-bk-leg-side" fill="#bcbcbc" stroke="#999" stroke-miterlimit="10" d="M668.92 482.73l-3.16 3.31v-119.2l3.95.83-.79 115.06z"/></g><g data-name="rt-bk-leg"><path data-name="rt-bk-leg-front" fill="#bcbcbc" stroke="#999" stroke-miterlimit="10" d="M799.69 486.04h-9.48v-119.2h9.48z"/><path data-name="rt-bk-leg-side" fill="#bcbcbc" stroke="#999" stroke-miterlimit="10" d="M787.05 482.73l3.16 3.31v-119.2l-3.95.83.79 115.06z"/></g><g data-name="top"><path data-name="top-top" fill="#bcbcbc" stroke="#999" stroke-miterlimit="10" d="M818.78 391.26h-154.8l-9.3-25.66h145.4l18.7 25.66z"/><path data-name="top-front" fill="#bcbcbc" stroke="#999" stroke-miterlimit="10" d="M818.78 407.81h-154.8l.4-.56v-15.99h154v15.99l.4.56z"/></g><g data-name="lt-tp-leg"><path data-name="lt-tp-leg-front" fill="#bcbcbc" stroke="#999" stroke-miterlimit="10" d="M664.38 408.23h9.48v119.2h-9.48z"/><path data-name="lt-tp-leg-side" fill="#bcbcbc" stroke="#999" stroke-miterlimit="10" d="M677.01 524.11l-3.16 3.31V408.23h3.95l-.79 115.88z"/></g><g data-name="rt-tp-leg"><path data-name="rt-tp-leg-front" fill="#bcbcbc" stroke="#999" stroke-miterlimit="10" d="M818.39 527.42h-9.48v-119.2h9.48z"/><path data-name="rt-tp-leg-side" fill="#bcbcbc" stroke="#999" stroke-miterlimit="10" d="M805.75 524.11l3.15 3.31V408.23h-3.94l.79 115.88z"/></g></g><g><path d="M696.26 346.17c0 .63-3.18 1.8-4.54 2.3a37.09 37.09 0 0 1-11.44 1.46c-7.5 0-13.58-1.42-13.58-3.17s6.08-3.18 13.58-3.18c5.48 0 10.2.75 12.35 1.85.79.4 3.63.27 3.63.74zM693.86 375.67c0 1.76-6.08 3.19-13.58 3.19s-13.58-1.43-13.58-3.19 6.08-3.17 13.58-3.17 13.58 1.42 13.58 3.17z" fill="#e8e8e8" stroke="#d2d2d2" stroke-miterlimit="10" stroke-width=".5" opacity=".83"/><path d="M696.06 346.48l-2.2 3.45v25.74c0-1.75-6.08-3.17-13.58-3.17s-13.58 1.42-13.58 3.17h-.22v-28.91h.22c0 1.75 6.08 3.17 13.58 3.17s15.78-1.69 15.78-3.45z" fill="#e8e8e8" stroke="#d2d2d2" stroke-miterlimit="10" stroke-width=".5" opacity=".83"/><path d="M669.4 351.57c.16 1.09.26 2.19.4 3.28s.21 2.18.3 3.28a15.68 15.68 0 0 1 .2 3.28 9.89 9.89 0 0 1-.9 3.28h-.2a9.65 9.65 0 0 1-.9-3.28 15 15 0 0 1 .2-3.28c.08-1.1.18-2.19.3-3.28s.24-2.19.4-3.28z" fill="#999" opacity=".42"/><path d="M674 345.56a16.93 16.93 0 0 1 2.61-.58c.88-.13 1.77-.18 2.66-.23a19.91 19.91 0 0 1 2.67.14 7.8 7.8 0 0 1 2.59.75v.05a10.85 10.85 0 0 0-2.59-.41q-1.32-.07-2.64 0c-1.76 0-3.52.17-5.27.36z" fill="#999" opacity=".55"/></g><g data-name="flask-group"><path data-name="body-flask" d="M737.93 363.7a2.35 2.35 0 0 1 .73 2.05 2.3 2.3 0 0 1-.93 1.55 2.35 2.35 0 0 1-1.76.46l-14.77-2.08a2.39 2.39 0 0 1-2-2.68 2.33 2.33 0 0 1 .93-1.55 1.94 1.94 0 0 1 .34-.21 14.54 14.54 0 0 1-5.2-13.11 14.89 14.89 0 0 1 12.59-12.35l2.5-17.77a1.48 1.48 0 0 1-1-1.6 1.47 1.47 0 0 1 1.69-1.25l8.86 1.24a1.48 1.48 0 0 1 .69 2.65 1.53 1.53 0 0 1-.81.29l-2.48 17.59c6.25 2.7 10.19 9 9.25 15.61a14.5 14.5 0 0 1-8.63 11.16z" fill="none" stroke="#aeaeae" stroke-miterlimit="10"/><path data-name="liquid" d="M737.93 363.7a2.35 2.35 0 0 1 .73 2.05 2.3 2.3 0 0 1-.93 1.55 2.35 2.35 0 0 1-1.76.46l-14.77-2.08a2.39 2.39 0 0 1-2-2.68 2.33 2.33 0 0 1 .93-1.55 1.94 1.94 0 0 1 .34-.21 14.54 14.54 0 0 1-5.2-13.11c.44-3.16 7.83-.83 15.54.18 8 1 16.25.86 15.77 4.23a14.5 14.5 0 0 1-8.65 11.16z" fill="#828282"/><path d="M732 319.47v3.13c0 1.04-.08 2.08-.14 3.11a13.91 13.91 0 0 1-.23 3.1 8.83 8.83 0 0 1-1.33 2.95h-.2a8.58 8.58 0 0 1-.45-3.2 13.37 13.37 0 0 1 .63-3c.22-1 .47-2 .73-3s.52-2 .83-3z" fill="#aeaeae" data-name="stem-hl"/><path d="M719.13 343.59a7 7 0 0 1 .91-2.92 8.15 8.15 0 0 1 1.9-2.29 6.74 6.74 0 0 1 2.81-1.42 3.38 3.38 0 0 1 3.17.75 7.73 7.73 0 0 0-2.23 1.42l-1.84 1.56a23.48 23.48 0 0 1-2.08 1.56 10.86 10.86 0 0 1-2.64 1.34z" fill="#aeaeae" data-name="bd-hl"/></g><g><path fill="none" stroke="#999" stroke-miterlimit="10" stroke-width="2" d="M713.1 354.57h36.18M713.1 387.5l1.86-33.93M749.28 387.5l-1.86-33.93"/></g><g><rect x="722.81" y="381.89" width="15" height="3.17" rx="1.59" ry="1.59" fill="#999"/><rect x="727.12" y="377.17" width="6.31" height="6.31" rx="3.15" ry="3.15" fill="#999"/><path d="M731.92 375.22c-1.41-1.16-.14-2.76.89-3.66l-2.56-1.06a10.59 10.59 0 0 1-1.2 5.72c-.91 1.71 1.68 3.22 2.59 1.52a13.63 13.63 0 0 0 1.61-7.24 1.52 1.52 0 0 0-2.56-1.06c-2.24 1.95-3.59 5.68-.89 7.9 1.48 1.22 3.61-.89 2.12-2.12z" fill="#fff"/></g><g><path d="M782.9 379.76a14.91 14.91 0 1 1-15.72-24.53 11.63 11.63 0 0 1-2.95-2.14 11.5 11.5 0 0 1 4.58-19.09c0-7.67.05-64.61 0-67.56-.08-4.43-2.78-4.71-6.09-4.76-1.1 0-12.28 0-13.44-.11-4.66.43-9.43-1-9.53 4.87v50.41h-7.9s-.1-43.91 0-50.41-.09-11.8 17-11.85H762.32c14.5.57 14.34 5.75 14.43 11.8s0 61.66 0 67.85a11.51 11.51 0 0 1 3.78 18.78 11.63 11.63 0 0 1-3 2.14 14.92 14.92 0 0 1 5.36 24.53z" fill="#e8e8e8" stroke="#d2d2d2" stroke-miterlimit="10" stroke-width=".5" opacity=".83"/><path data-name="liquid" d="M787.14 369.78c0 7.49-7.07 13.93-14.55 13.93S758 377.27 758 369.78c0-2.6.6-6.76 3-7.09a51.62 51.62 0 0 1 11.56-.69c4.68 0 6.56-.05 11.24.21 2.64.14 3.34 4.79 3.34 7.57z" fill="#9f9f9f"/></g><g><path data-name="body-top" d="M788.27 367c0 .33 1.61 1 2.29 1.21a18 18 0 0 0 5.76.76c3.78 0 6.84-.74 6.84-1.66s-3.06-1.67-6.84-1.67a15.67 15.67 0 0 0-6.22 1c-.4.14-1.83.07-1.83.36z" fill="#e8e8e8" stroke="#d2d2d2" stroke-miterlimit="10" stroke-width=".5" opacity=".83"/><path data-name="body-btm" d="M789.48 382.45c0 .92 3.06 1.67 6.84 1.67s6.84-.75 6.84-1.67-3.06-1.66-6.84-1.66-6.84.74-6.84 1.66z" fill="#e8e8e8" stroke="#d2d2d2" stroke-miterlimit="10" stroke-width=".5" opacity=".83"/><path data-name="body-main" d="M788.37 367.13l1.11 1.8v13.52c0-.92 3.06-1.66 6.84-1.66s6.84.74 6.84 1.66h.12v-15.18h-.12c0 .92-3.06 1.66-6.84 1.66s-7.95-.88-7.95-1.8z" fill="#e8e8e8" stroke="#d2d2d2" stroke-miterlimit="10" stroke-width=".5" opacity=".83"/><path d="M792 369.8c.15.57.26 1.14.4 1.72s.21 1.15.3 1.72a4.61 4.61 0 0 1 .2 1.72 3.47 3.47 0 0 1-.9 1.72h-.2a3.31 3.31 0 0 1-.9-1.72 4.24 4.24 0 0 1 .2-1.72c.08-.57.18-1.15.3-1.72s.24-1.15.4-1.72z" fill="#999" opacity=".42"/><path d="M799.5 366.68a7.19 7.19 0 0 1-1.35.19h-1.31c-.43 0-.87 0-1.3-.08l-1.33-.1v-.05a8.76 8.76 0 0 1 2.65-.27 26.52 26.52 0 0 1 2.66.23z" fill="#999" opacity=".55"/><path data-name="liquid" d="M800.57 383.76c-1.08.12-3.16.36-4.25.35a18.78 18.78 0 0 1-5.44-1c-1-.41-1.4-.71-1.4-1.8V381a2.24 2.24 0 0 1 2.32-1.91h8.82c1.09 0 2.54.85 2.54 1.95v.71c0 1.13-1.5 1.89-2.59 2.01z" fill="#9f9f9f"/></g><g><path fill="#e8e8e8" stroke="#d2d2d2" stroke-miterlimit="10" stroke-width=".5" d="M785.21835 362.4232l8.4827-1.8868.54932 2.46965-8.4827 1.88679z"/><path fill="#9e9e9e" d="M793.61 357.16h1.17v3.18h-1.17z"/><rect x="792.7" y="356.71" width="3.07" height=".62" rx=".31" ry=".31" fill="#9e9e9e"/><path fill="#a6a6a6" d="M793.46 363.34h1.56V366h-1.56z"/><circle cx="794.24" cy="361.7" r="2.36" fill="#666"/></g></g></g></svg>