<svg xmlns="http://www.w3.org/2000/svg" width="177.63" height="273.83" viewBox="0 0 177.63 273.83">
  <title>Asset 5</title>
  <g id="Layer_2" data-name="Layer 2">
    <g id="rat">
      <g>
        <path d="M51.54,56.71C56.81,56.5,71.6,55.12,75,50.23S85.65,31.89,89.07,36.28,84,57.78,78.31,62.2,55.35,74.65,53,72.81" fill="#fdfdfd" stroke="#858585" stroke-miterlimit="10" stroke-width="0.75"/>
        <g id="hand-rt">
          <path d="M87.09,33.93c1.72-3,4.32-4.49,4.3-7.46s3.44-6,3.46-3-.84,5.2-1.71,5.95c-1.72,1.5,1.73-1.49,2.58-5.22.73-3.22,3.43-3.66,3.59-1.32a4.54,4.54,0,0,1-.12,1.31,12.75,12.75,0,0,1-4.3,6.71c-.87.75,4.32-2.25,6-4.49s3.47.72,1.75,3-2.59,3-6.92,5.24c-1.48.77,2.68-.69,5.22,1.46,1.74,1.48.88,3-1.72,2.24-1.61-.45-2.78-2.16-4.35-1.46C82.27,42.44,86.6,34.22,87.09,33.93Z" fill="#ffa5a5"/>
          <path d="M87.08,33.91c1-1.78,2.47-3.21,3.48-4.92a5.35,5.35,0,0,0,.7-2.84,5.41,5.41,0,0,1,1.11-2.86,3.65,3.65,0,0,1,1.18-1.06,1.07,1.07,0,0,1,.87-.11,1,1,0,0,1,.54.71A6,6,0,0,1,95,24.4c0,.51-.08,1-.16,1.53a8.11,8.11,0,0,1-1,2.92,3,3,0,0,1-.49.64c-.1.1-.2.17-.29.26l-.15.12-.08.06,0,0-.11.05a.24.24,0,0,1-.22-.05.29.29,0,0,1,0-.27c0-.06,0,0,0-.06l.06-.08.12-.15L93,29.1l.45-.6A14.39,14.39,0,0,0,95,25.94a9.79,9.79,0,0,0,.52-1.4,10.19,10.19,0,0,1,.47-1.45,4,4,0,0,1,.92-1.27,1.81,1.81,0,0,1,1.48-.5,1.4,1.4,0,0,1,1,1.17,3.8,3.8,0,0,1,0,1.54,12.35,12.35,0,0,1-2.75,5.37,13.63,13.63,0,0,1-1.06,1.09L95,31l0,.05h0s0-.18-.06-.14,0,0,0,0l.16-.07.33-.18A27.11,27.11,0,0,0,97.81,29a20.17,20.17,0,0,0,2.3-1.92c.37-.35.63-.73,1-1.14a2.11,2.11,0,0,1,.7-.45,1.1,1.1,0,0,1,.87.06,1.78,1.78,0,0,1,.88,1.38,3.08,3.08,0,0,1-.16,1.59,4.8,4.8,0,0,1-.81,1.35q-.47.6-1,1.17a19.08,19.08,0,0,1-5,3.45l-.67.35-.15.09-.06,0s0,.06,0-.08a.23.23,0,0,0-.14-.29h.23c.49,0,1,0,1.53,0a6.82,6.82,0,0,1,3,.76,4.63,4.63,0,0,1,1.25,1,1.65,1.65,0,0,1,.46,1.63,1.14,1.14,0,0,1-.68.63,2.49,2.49,0,0,1-.83.16A4.89,4.89,0,0,1,99,38.48c-1-.36-1.77-1.11-2.66-1.45A1.73,1.73,0,0,0,95,37c-.47.19-.93.39-1.4.57a27.17,27.17,0,0,1-2.89,1,8.39,8.39,0,0,1-3,.32,2.09,2.09,0,0,1-1.4-.69,2.07,2.07,0,0,1-.36-1.5,4.92,4.92,0,0,1,.39-1.47A4.12,4.12,0,0,1,87.08,33.91Zm0,0a5.43,5.43,0,0,0-1,2.76,1.94,1.94,0,0,0,.37,1.36,2,2,0,0,0,1.27.58,8.19,8.19,0,0,0,2.93-.38,25.62,25.62,0,0,0,2.83-1c.47-.19.92-.4,1.39-.6a2.16,2.16,0,0,1,1.62,0c1,.38,1.76,1.1,2.67,1.39a4.51,4.51,0,0,0,1.4.23c.45,0,.93-.15,1-.48a1.21,1.21,0,0,0-.38-1.11,4.15,4.15,0,0,0-1.11-.88,6.46,6.46,0,0,0-2.79-.69c-.49,0-1,0-1.49,0H95.5l-.1,0a.29.29,0,0,1-.19-.36c.09-.19.14-.17.17-.2l.1-.07.18-.09.67-.35a18.78,18.78,0,0,0,4.93-3.31c.34-.36.66-.74,1-1.14a4.46,4.46,0,0,0,.76-1.21,2.61,2.61,0,0,0,.16-1.38,1.41,1.41,0,0,0-.64-1.1,1,1,0,0,0-1.15.31c-.31.33-.65.77-1,1.11A20.72,20.72,0,0,1,98,29.24c-.83.58-1.67,1.13-2.56,1.63l-.34.18-.2.08a.18.18,0,0,1-.11,0s-.11-.18-.07-.18l0,0a.2.2,0,0,1,.08-.08l.57-.5c.37-.34.72-.7,1-1.07A11.14,11.14,0,0,0,99.13,24a3.59,3.59,0,0,0,0-1.46,1.2,1.2,0,0,0-.86-1A1.58,1.58,0,0,0,97,22a3.7,3.7,0,0,0-.83,1.19,9.82,9.82,0,0,0-.43,1.42,10.25,10.25,0,0,1-.51,1.44,14.79,14.79,0,0,1-1.52,2.65l-.45.62-.24.3-.11.15-.06.07h0a.16.16,0,0,0,0-.18s-.08-.09-.16-.09-.08,0-.06,0l.07-.06.14-.12a2.21,2.21,0,0,0,.27-.25,2.65,2.65,0,0,0,.42-.56,8.53,8.53,0,0,0,.93-2.78,14.39,14.39,0,0,0,.18-1.47,6.33,6.33,0,0,0,0-1.45c-.06-.2-.15-.41-.31-.46a.75.75,0,0,0-.57.09,3.26,3.26,0,0,0-1.07.93,5.22,5.22,0,0,0-1.08,2.68,5.69,5.69,0,0,1-.78,2.95,16.88,16.88,0,0,1-1.86,2.4A19.54,19.54,0,0,0,87.11,33.94Z" fill="#ff5d5d"/>
        </g>
        <path d="M50.7,52.88c-8.08,17.46-17.06,24.46-9.33,53.61s73.49,71.27,97.5,74.89,25.49-49.33,1.46-56.87S86.17,102.9,73.94,80.2,60.66,28,55.68,40.44Z" fill="#fdfdfd" stroke="#858585" stroke-miterlimit="10" stroke-width="0.75"/>
        <g id="head-rt-ear">
          <circle cx="28.23" cy="17.41" r="17.05" fill="#fdfdfd"/>
          <path d="M44.4,11.89A17.7,17.7,0,0,1,43.75,25a16.79,16.79,0,0,1-9.91,8.81,17.47,17.47,0,0,1-13.18-1A17.71,17.71,0,0,1,11.91,23,17.2,17.2,0,0,1,22.6.91a16.92,16.92,0,0,1,13.25,1A17.6,17.6,0,0,1,44.4,11.89Zm-.07,0a16.51,16.51,0,0,0-8.69-9.58,17.28,17.28,0,0,0-12.79-.69A16.9,16.9,0,0,0,12.29,22.85a16.54,16.54,0,0,0,8.49,9.75,16.7,16.7,0,0,0,12.86.65,17.43,17.43,0,0,0,9.69-8.43,17,17,0,0,0,1.82-6.33A16.72,16.72,0,0,0,44.33,11.91Z" fill="#858585"/>
        </g>
        <g id="head-lt-ear">
          <path d="M78.09,31.62c-.32.16-.63.31-1,.45a23.19,23.19,0,0,1-41.5,17.38,19,19,0,1,1-2.86-22.72c1.31-3.19,2.58-6.82,5.19-9.17,1.49-1.34.78-4,2.64-5,.94-.47,2.87,0,5.11-1.75.74-.57,2,1.12,2.87.92,5.72-1.22,12.31.9,17.14,3.67A16.7,16.7,0,0,1,69,13.32c6.4-3.19,13.65-1.69,16.17,3.38S84.5,28.44,78.09,31.62Z" fill="#fdfdfd"/>
          <path d="M78.11,31.66l-1,.44,0,0a23.52,23.52,0,0,1-13.92,25.1A23.26,23.26,0,0,1,35.4,49.63l.5,0a19.29,19.29,0,0,1-8.79,7.9,20.25,20.25,0,0,1-5.76,1.56,19.11,19.11,0,0,1-5.94-.28,18.48,18.48,0,0,1-5.57-2.09A19.52,19.52,0,0,1,5.17,53a20,20,0,0,1-3.34-4.9A21.56,21.56,0,0,1,.14,42.41,19.37,19.37,0,0,1,2.3,30.84a19.07,19.07,0,0,1,8.5-8.19A19.42,19.42,0,0,1,22.52,21,19.67,19.67,0,0,1,33,26.48l-.6.11c.67-1.65,1.3-3.33,2.12-5a14.67,14.67,0,0,1,3.2-4.42,4.52,4.52,0,0,0,1-2.23,4,4,0,0,1,1.39-2.54,2.16,2.16,0,0,1,.72-.34,4.86,4.86,0,0,1,.71-.13c.45-.07.88-.12,1.3-.21a6.33,6.33,0,0,0,2.31-1l.26-.18a1,1,0,0,1,.45-.22,1.43,1.43,0,0,1,.89.16c.46.23.81.51,1.17.7a1.42,1.42,0,0,0,.47.17,5.65,5.65,0,0,0,.57-.08,12.36,12.36,0,0,1,1.36-.19,19.83,19.83,0,0,1,5.44.24,31,31,0,0,1,10.12,3.79l-.36,0a16.44,16.44,0,0,1,9.39-3.75A11.11,11.11,0,0,1,84.18,15a8.63,8.63,0,0,1,1.89,4.69,10.64,10.64,0,0,1-.93,4.95A14.75,14.75,0,0,1,78.11,31.66Zm0-.07a14.67,14.67,0,0,0,6.92-7,10,10,0,0,0,.86-4.88A8.38,8.38,0,0,0,84,15.18a10.71,10.71,0,0,0-9-3.26,15.89,15.89,0,0,0-9,3.76l-.17.14-.19-.11a31.74,31.74,0,0,0-9.93-3.59,19.29,19.29,0,0,0-5.25-.23c-.43,0-.87.1-1.29.18a3.9,3.9,0,0,1-.76.1,2.1,2.1,0,0,1-.79-.26c-.43-.23-.79-.51-1.14-.68a.73.73,0,0,0-.39-.1s0,0-.05,0,0,0-.09.06l-.29.2A7,7,0,0,1,43,12.52c-.89.23-1.9.16-2.44.57a3.29,3.29,0,0,0-1.07,2.08,5.13,5.13,0,0,1-1.19,2.6c-2.62,2.36-3.83,5.82-5.19,9.1l-.21.52-.4-.4a19,19,0,0,0-10.1-5.37A18.81,18.81,0,0,0,11,23.15,18.55,18.55,0,0,0,2.68,31,18.9,18.9,0,0,0,.47,42.37,21.15,21.15,0,0,0,2.08,48a19.8,19.8,0,0,0,3.27,4.87A17.76,17.76,0,0,0,10,56.46a18,18,0,0,0,5.5,2,18.77,18.77,0,0,0,5.84.22,20,20,0,0,0,5.62-1.58,18.65,18.65,0,0,0,8.45-7.79l.22-.4.28.37a23.19,23.19,0,0,0,12.33,8.31A23,23,0,0,0,77.09,32.07v0h0Z" fill="#858585"/>
        </g>
        <g id="nose">
          <rect x="73.21" y="8" width="8.93" height="8.18" rx="1.79" ry="1.79" transform="translate(35.64 78.52) rotate(-66.52)" fill="#ffa5a5"/>
          <path d="M78,17.12c-1.19-.51-2.41-1-3.62-1.43a5.88,5.88,0,0,1-.93-.38,2,2,0,0,1-.74-.77,2.15,2.15,0,0,1,.1-2C73.36,11.31,74,10.16,74.47,9l.4-.89a1.82,1.82,0,0,1,.58-.82A1.94,1.94,0,0,1,77.39,7c1.2.49,2.41,1,3.61,1.46.31.14.58.22.92.41a2,2,0,0,1,.75.8,1.94,1.94,0,0,1,.23,1.08,3,3,0,0,1-.32,1c-.52,1.19-1,2.37-1.64,3.53l-.43.87a1.91,1.91,0,0,1-2.51,1Zm0,0a1.74,1.74,0,0,0,1.78-.28,4.33,4.33,0,0,0,.84-1.69c.46-1.22,1-2.42,1.47-3.61a2.45,2.45,0,0,0,.26-.84,1.6,1.6,0,0,0-.16-.8,1.57,1.57,0,0,0-.55-.62c-.22-.13-.57-.26-.85-.4-1.18-.53-2.35-1.09-3.53-1.64a1.63,1.63,0,0,0-1.72.2c-.51.37-.65,1.06-.93,1.64-.51,1.19-.95,2.41-1.44,3.62a2.24,2.24,0,0,0-.26.85,1.7,1.7,0,0,0,.17.83,1.5,1.5,0,0,0,.56.64c.23.14.56.28.84.43C75.66,16,76.83,16.56,78,17.08Z" fill="#ff5d5d"/>
        </g>
        <g id="eye-lt">
          <circle cx="52.43" cy="28.24" r="4.77" fill="#fdfdfd"/>
          <path d="M57,26.69a5.14,5.14,0,0,1-.11,3.72A4.58,4.58,0,0,1,54,33a5.16,5.16,0,0,1-6.25-3.13,4.87,4.87,0,0,1,3-6.34,4.67,4.67,0,0,1,3.8.32A5.18,5.18,0,0,1,57,26.69Zm0,0a4.43,4.43,0,0,0-2.47-2.6A4.94,4.94,0,0,0,51,24,4.7,4.7,0,0,0,48,29.74a4.44,4.44,0,0,0,2.33,2.71,4.54,4.54,0,0,0,3.54.11,5,5,0,0,0,2.67-2.29A4.44,4.44,0,0,0,56.93,26.7Z" fill="#666"/>
        </g>
        <g id="eye-rt">
          <circle cx="57.09" cy="16.56" r="3.41" fill="#fdfdfd"/>
          <path d="M53.84,17.67a3.89,3.89,0,0,1,0-2.69,3.24,3.24,0,0,1,2-1.85,3.83,3.83,0,0,1,4.53,2.28,3.42,3.42,0,0,1-.09,2.75A3.5,3.5,0,0,1,58.28,20a3.37,3.37,0,0,1-2.76-.26A3.89,3.89,0,0,1,53.84,17.67Zm0,0a3,3,0,0,0,1.77,1.82,3.57,3.57,0,0,0,2.45.07A3.31,3.31,0,0,0,59.94,18a3.42,3.42,0,0,0,.25-2.46,3,3,0,0,0-1.63-1.93,3.15,3.15,0,0,0-2.5,0,3.72,3.72,0,0,0-1.89,1.59A3.07,3.07,0,0,0,53.89,17.65Z" fill="#666"/>
        </g>
        <circle id="pupil-lt" cx="53.63" cy="26.55" r="2.42" fill="#1f1f1f"/>
        <circle id="pupil-rt" cx="58.25" cy="15.56" r="1.73" fill="#1f1f1f"/>
        <ellipse id="mouth" cx="72.87" cy="35.31" rx="3.07" ry="2.21" transform="translate(-1.67 66.95) rotate(-48.86)" fill="#1f1f1f"/>
        <g id="ear-line-top">
          <path d="M29.64,32.19c-4.59-2.89-13.22-7.67-19.18-2.13" fill="#fdfdfd"/>
          <path d="M29.64,32.19c-1.55-.79-3.09-1.6-4.67-2.28a27.5,27.5,0,0,0-4.85-1.66,13.33,13.33,0,0,0-5-.25,10.34,10.34,0,0,0-4.63,2.06l1-.9c.33-.28.72-.5,1.08-.75a9.5,9.5,0,0,1,2.48-1,12,12,0,0,1,5.31.09,20.54,20.54,0,0,1,4.93,1.87A30,30,0,0,1,29.64,32.19Z" fill="#858585"/>
        </g>
        <g id="ear-line-side">
          <path d="M6.89,36.26C4,44.77,9.36,52,12.5,52.69" fill="#fdfdfd"/>
          <path d="M6.89,36.26a23.92,23.92,0,0,0-.43,4.66,17.13,17.13,0,0,0,.78,4.5,15.91,15.91,0,0,0,1.94,4.13,8.43,8.43,0,0,0,3.32,3.14A6.91,6.91,0,0,1,8.55,50a12.93,12.93,0,0,1-2.27-4.29,13.82,13.82,0,0,1-.59-4.82A13.42,13.42,0,0,1,6.89,36.26Z" fill="#858585"/>
        </g>
        <path d="M60.22,62.47c18.43-6.86,24.15-8.22,28.32-15.29s19.57-8.08,13.8-.37-11.62,27.91-20,30.65-19.52,6.88-19.52,6.88" fill="#fdfdfd" stroke="#858585" stroke-miterlimit="10" stroke-width="0.75"/>
        <g id="hand-lt">
          <path d="M101.86,45.09c3.92-.19,6.79-2,9.8-.47s7.84-.38,4.83-1.95-5.72-1.86-6.92-1.37c-2.42,1,2.41-1,6.63.11,3.65.93,5.51-1.57,3.21-3A5,5,0,0,0,118,37.9a14.46,14.46,0,0,0-9,.86c-1.21.49,4.53-3.21,7.7-3.79s1.08-3.9-2.09-3.32-4.38,1.06-8.92,4.28c-1.55,1.1,2.1-2.35,1.24-6.05-.59-2.54-2.55-2.44-3.17.58-.38,1.86.75,3.93-.78,5.17C90.71,45.55,101.3,45.43,101.86,45.09Z" fill="#ffa5a5"/>
          <path d="M101.85,45.07a21.55,21.55,0,0,0,3.4-.57,20.18,20.18,0,0,1,3.4-.62,6.27,6.27,0,0,1,3.38.75,6,6,0,0,0,3.3.29,3.81,3.81,0,0,0,1.52-.59.84.84,0,0,0,.4-.55.73.73,0,0,0-.31-.58,7,7,0,0,0-1.46-.79,15.18,15.18,0,0,0-1.59-.59,10,10,0,0,0-3.32-.51,3.43,3.43,0,0,0-.79.13l-.39.15-.2.08-.09,0s0,0,0,0a.15.15,0,0,0,0-.17c0-.05-.06-.15-.12-.15h0l.11,0,.21,0,.42-.08.86-.14a16.79,16.79,0,0,1,3.47-.16,10,10,0,0,1,1.73.23,11.42,11.42,0,0,0,1.68.3,4.34,4.34,0,0,0,1.64-.22,1.83,1.83,0,0,0,1.14-1.05,1.36,1.36,0,0,0-.54-1.4,4.32,4.32,0,0,0-1.5-.75,12.85,12.85,0,0,0-6.77,0,15.39,15.39,0,0,0-1.63.51l-.8.31-.12,0h0s-.07,0-.14-.09,0-.12.06-.16l.17-.15.36-.25c1-.64,2-1.21,3-1.75a24.22,24.22,0,0,1,3.17-1.4c.54-.2,1.16-.3,1.67-.45s1-.53.93-1a1.67,1.67,0,0,0-.78-1.25,3.12,3.12,0,0,0-1.5-.56,5.14,5.14,0,0,0-1.64.14c-.56.11-1.11.23-1.65.39a20.87,20.87,0,0,0-5.94,3.28l-.71.5-.19.12a.3.3,0,0,1-.11.07.39.39,0,0,1-.23.07.3.3,0,0,1-.28-.33l0-.12,0-.12.11-.2c.3-.51.57-1,.81-1.5a7.28,7.28,0,0,0,.76-3.21,4.68,4.68,0,0,0-.31-1.59c-.19-.49-.54-.95-1-1s-.82.38-1.07.83a5.52,5.52,0,0,0-.5,1.55c-.18,1.08.17,2.22,0,3.44a2.42,2.42,0,0,1-.87,1.61c-.44.37-.89.72-1.32,1.09a29.28,29.28,0,0,0-2.49,2.36A9.21,9.21,0,0,0,97.39,42a2.19,2.19,0,0,0-.07,1.59,2.13,2.13,0,0,0,1.19,1.09,6,6,0,0,0,1.64.42A5.1,5.1,0,0,0,101.85,45.07Zm0,0a5.31,5.31,0,0,1-1.73.09,5.9,5.9,0,0,1-1.7-.38,2.38,2.38,0,0,1-1.32-1.14,2.4,2.4,0,0,1,0-1.77A9.43,9.43,0,0,1,99.06,39a29.92,29.92,0,0,1,2.48-2.43c.43-.39.88-.75,1.31-1.13a2,2,0,0,0,.7-1.36c.12-1.08-.25-2.23-.08-3.44a5.6,5.6,0,0,1,.53-1.73,2.91,2.91,0,0,1,.58-.75,1.32,1.32,0,0,1,1-.35,1.86,1.86,0,0,1,1.39,1.3,5.17,5.17,0,0,1,.36,1.77,7.87,7.87,0,0,1-.8,3.45c-.25.53-.54,1-.83,1.54l-.09.17,0,.07h0a.23.23,0,0,0-.22-.25c-.1,0-.06,0,0,0l.07,0,.17-.11.71-.5a21.48,21.48,0,0,1,6.11-3.3c.56-.16,1.13-.28,1.7-.39a5.53,5.53,0,0,1,1.78-.13,3.57,3.57,0,0,1,1.68.67,2,2,0,0,1,.93,1.59,1.29,1.29,0,0,1-.4.9,2.43,2.43,0,0,1-.81.46c-.6.16-1.12.23-1.67.42a24.21,24.21,0,0,0-3.15,1.34,33.75,33.75,0,0,0-3,1.69l-.35.24-.15.13s0,.05,0-.06-.09-.05-.08-.08l.08,0,.81-.31a16.55,16.55,0,0,1,1.66-.49,14,14,0,0,1,6.87,0,4.31,4.31,0,0,1,1.58.77,1.58,1.58,0,0,1,.64,1.62,2,2,0,0,1-1.28,1.23,4.55,4.55,0,0,1-1.75.27,13.71,13.71,0,0,1-1.72-.28,10.57,10.57,0,0,0-1.68-.21,16.11,16.11,0,0,0-3.4.21l-.85.14-.42.09-.21,0-.11,0s0,0-.11,0a.32.32,0,0,1-.22-.13.27.27,0,0,1,.09-.23.32.32,0,0,1,.11-.07l.1,0,.2-.09.42-.16a4.05,4.05,0,0,1,.9-.16,9.26,9.26,0,0,1,3.47.52,13.91,13.91,0,0,1,1.62.63,6.65,6.65,0,0,1,1.55.87,1.05,1.05,0,0,1,.43.9,1.2,1.2,0,0,1-.55.82,4.25,4.25,0,0,1-1.68.63,6.15,6.15,0,0,1-3.47-.36,6,6,0,0,0-3.25-.77C106.4,44.27,104.17,45.07,101.87,45.12Z" fill="#ff5d5d"/>
        </g>
        <path d="M141.18,174.66c.71,6.87,47.94,40.51,20.34,67C143.92,258.53,128,269,107.75,266.32s-17.89,4.34,1,7c15.31,2.17,46.89-9.66,62.43-27,13.81-15.39,3.5-61.17-20.66-75.81C129.85,158,141.18,174.66,141.18,174.66Z" fill="#ffa5a5" stroke="#ff5d5d" stroke-miterlimit="10" stroke-width="0.5"/>
      </g>
    </g>
  </g>
</svg>
